<?xml version="1.0" encoding="UTF-8"?><svg id="Capa_1" xmlns="http://www.w3.org/2000/svg" viewBox="0 0 178.96 98.66"><defs><style>.cls-1{fill:#00ce7c;}.cls-2{fill:#002b49;}</style></defs><path class="cls-2" d="M52.82,8.53c1.42-1.15,3.26-1.73,5.49-1.73,2.48,0,4.42,.56,5.81,1.68,1.39,1.12,2.06,2.8,2,5.04-.18,9.39-.27,23.4-.27,42.05,0,1.09,.05,2.8,.14,5.13,.09,2.33,.11,4.04,.05,5.13-.12,2.24-.68,3.89-1.68,4.95-1,1.06-2.8,1.71-5.4,1.95-2.73,.3-4.8-.3-6.22-1.82-1.42-1.51-2.16-4.21-2.22-8.08-.24-9.08-.21-25.52,.09-49.32,.06-2.18,.8-3.84,2.23-4.99"/><path class="cls-2" d="M119.49,57.3c0,3.09,.09,6.18,.27,9.26,0,4.12-2.54,6.18-7.63,6.18-3.15,0-5.27-1.85-6.36-5.54-2.36,3.88-5.99,5.81-10.9,5.81-6.17,0-11.13-1.94-14.85-5.81-3.72-3.87-5.59-8.81-5.59-14.8,0-6.78,2.03-12.22,6.09-16.3,4.06-4.09,9.2-6.13,15.44-6.13,4.54,0,7.93,1.6,10.17,4.81,.24-.91,.61-1.7,1.09-2.36,1.09-1.51,2.91-2.27,5.45-2.27,4.6,0,6.9,2.15,6.9,6.45l-.09,6.99v13.71Zm-27.12,.82c1.39,1.64,3.15,2.45,5.27,2.45,2.3,0,4.25-.83,5.86-2.5,1.6-1.67,2.41-3.89,2.41-6.68s-.76-4.87-2.27-6.45c-1.51-1.57-3.36-2.36-5.54-2.36-2.36,0-4.25,.83-5.68,2.5-1.42,1.67-2.13,3.98-2.13,6.95,0,2.42,.7,4.45,2.09,6.08"/><path class="cls-2" d="M137.02,29.79c3.27,0,5.3,1.36,6.09,4.09l.45,1.82c1.15-1.88,2.8-3.35,4.95-4.41,2.15-1.06,4.46-1.59,6.95-1.59,6.12,0,10.94,1.98,14.49,5.95,3.54,3.97,5.31,9.13,5.31,15.48s-2.01,11.63-6.04,15.8c-4.03,4.18-9.28,6.27-15.76,6.27-4.12,0-7.21-1.24-9.26-3.72,0,.3,.01,1.12,.04,2.45,.03,1.33,.04,2.27,.04,2.82s.03,2.07,.09,4.59c.06,2.51,.09,4.62,.09,6.31,0,2.42-.68,4.21-2.04,5.36-1.36,1.15-3.5,1.73-6.4,1.73-4.36,0-6.54-2.24-6.54-6.72l.18-35.06-.09-14.9c.06-4.18,2.54-6.27,7.45-6.27m20.98,14.94c-1.57-1.54-3.39-2.32-5.45-2.32-2.24,0-4.19,.82-5.86,2.45-1.66,1.63-2.5,3.76-2.5,6.36,0,6.24,2.72,9.35,8.17,9.35,2.36,0,4.28-.89,5.77-2.68,1.48-1.79,2.22-4.13,2.22-7.04,0-2.54-.79-4.59-2.36-6.13"/><path class="cls-1" d="M17,59.47l-.09,7.45c-.12,4.12-2.54,6.17-7.25,6.17-2.26,0-4.08-.59-5.46-1.77-1.38-1.18-2.04-2.83-1.97-4.95l.18-8.72c0-3.21-.03-9.33-.09-18.34-.06-9.02-.06-16.2,0-21.52,0-.49-.02-1.36-.05-2.63-.03-1.27-.05-2.15-.05-2.63,0-1.88,.78-3.36,2.34-4.45,1.56-1.09,3.32-1.63,5.28-1.63,2.26,0,4.1,.49,5.51,1.45,1.41,.97,2.11,2.42,2.11,4.36,0,2.42-.15,13.08-.46,31.97v15.26Z"/><path class="cls-1" d="M38.75,70.54h0c-2.61,2.91-7.09,3.16-10.01,.55l-15.72-14.09c-2.52-2.26-2.73-6.14-.47-8.66,2.97-3.31,8.05-3.59,11.36-.62l14.3,12.82c2.91,2.61,3.16,7.09,.55,10.01"/><path class="cls-1" d="M38.72,32.63h0c2.68,2.91,2.49,7.43-.41,10.11l-15.86,14.62c-2.1,1.93-5.36,1.8-7.3-.3l-1.4-1.52c-2.65-2.87-2.46-7.35,.41-10l14.46-13.32c2.91-2.68,7.43-2.49,10.11,.41"/><path class="cls-2" d="M17.02,42.89l-6.9,6.31c-1.57,1.43-1.55,3.91,.04,5.32l6.82,6.03,.03-17.66Z"/></svg>