<?xml version="1.0" encoding="UTF-8"?><svg id="Capa_1" xmlns="http://www.w3.org/2000/svg" viewBox="0 0 350 114.71"><defs><style>.cls-1{fill:#f5898d;}.cls-2{fill:#ec1c24;}.cls-3{fill:#2b3796;}.cls-4{fill:#fefefe;}</style></defs><path class="cls-3" d="M160.16,62.19c2.1,0,4.21-.11,6.3,.04,1.35,.1,1.7-.35,1.93-1.6,.91-5.05,2.01-10.07,2.93-15.12,.23-1.26,.56-1.88,2.01-1.9,2.82-.04,5.65-.27,8.46-.56,1.4-.14,1.38,.41,1.17,1.47-2.37,12.29-4.71,24.58-7.06,36.87-.62,3.27-1.11,6.56-2.11,9.75-3.66,11.74-11.86,18.24-24.15,19.09-3.84,.27-7.68,.28-11.47-.56-11.99-2.66-17.9-11.87-15.41-23.99,2.51-12.21,11.31-20.35,24.62-22.82,4.23-.78,8.48-1.03,12.77-.68Z"/><path class="cls-3" d="M322.6,62.33c4.4-.11,9.09,.68,13.45,2.88,7.98,4.02,11.38,12.5,8.75,22.08-3.64,13.29-12.89,20.51-25.93,23.36-5.65,1.23-11.37,1.17-17.02-.27-11.21-2.85-16.68-11.82-14.06-23.09,3-12.9,13.46-22.27,27.2-24.43,2.38-.37,4.75-.52,7.61-.52Z"/><path class="cls-3" d="M82.83,110.87c-3.73,.06-7.37-.45-10.91-1.63-9.37-3.13-13.99-11.69-11.75-21.79,2.76-12.46,12.67-21.79,25.59-24.15,5.18-.95,10.34-1.13,15.54-.07,12.42,2.52,18.36,11.97,14.95,24.19-3.66,13.13-12.98,20.03-25.85,22.81-2.49,.54-5.03,.58-7.57,.63Z"/><path class="cls-3" d="M223.3,107.32c-10.75,5.73-21.84,6.88-32.98,1.29-8.61-4.32-11.88-13-9.14-23.21,3.36-12.51,12.12-19.33,24.35-22.07,6.07-1.36,12.22-1.47,18.27,.36,4.44,1.35,7.88,3.87,8.76,8.68,.91,4.97-.76,9.17-4.72,12.33-5.26,4.21-11.56,5.51-18.06,5.98-5.14,.37-10.3,.24-15.37-.85-1.66-.36-2.13,.11-2.09,1.79,.18,6.88,4.18,11.8,11.33,13.87,5.01,1.45,10.12,1.75,15.28,1.5,1.43-.07,2.86-.17,4.29-.25l.05,.58Z"/><path class="cls-3" d="M60.5,64.28c-.7,1.97-1.36,3.79-1.98,5.64-.36,1.08-1.2,.84-1.97,.79-4.27-.28-8.54-.59-12.82-.41-4.13,.17-8.26,.43-12.23,1.69-3.36,1.07-5.21,2.74-5,4.7,.33,3.05,2.91,3.47,5.22,4.05,4.43,1.11,9.03,1.3,13.43,2.57,6.37,1.84,9.19,5.5,8.59,11.21-.56,5.24-3.04,9.25-7.57,12.02-5.31,3.24-11.24,4.16-17.27,4.49-7.71,.42-15.34-.42-22.88-2.07-1.43-.31-2.01-.71-1.53-2.43,1.44-5.12,1.32-5,6.73-4.33,7.35,.92,14.72,1.52,22.06-.19,1.99-.46,3.87-1.2,5.39-2.66,3.27-3.13,2.41-7.25-1.86-8.63-3.95-1.28-8.13-1.38-12.18-2.16-1.35-.26-2.7-.54-4.01-.95-7.34-2.33-9.63-9.49-5.01-15.69,3.07-4.12,7.57-6.01,12.33-7.2,10.74-2.67,21.55-2.06,32.56-.44Z"/><path class="cls-3" d="M310.32,2.71c.53,3.8,1.19,7.58,1.52,11.39,.17,1.95,.83,1.83,2.27,1.3,3.64-1.36,7.33-2.6,11.29-3.59-2.39,3.08-4.78,6.17-7.18,9.24q-1.94,2.49,.51,4.4c2.49,1.94,4.99,3.88,7.93,6.15-4.28,.32-8.01,.66-11.75,.84-1.6,.08-2.2,.58-2.23,2.28-.08,4.04-.42,8.07-.69,12.68-2.42-3.43-4.58-6.38-6.61-9.42-.8-1.2-1.32-1.32-2.39-.28-3.1,2.99-6.32,5.87-9.97,9.24,1.37-4.79,2.49-8.96,3.78-13.08,.44-1.4,.04-1.72-1.26-1.87-3.67-.42-7.32-.95-11-1.44-.12-.83,.66-.84,1.08-1.08,3.25-1.9,6.49-3.81,9.81-5.59,1.1-.59,1.44-1.07,.88-2.3-1.6-3.55-3.07-7.17-4.62-10.84,1.31-.1,2.33,.81,3.47,1.27,2.27,.93,4.55,1.9,6.7,3.07,1.43,.78,1.9,.35,2.49-.96,1.79-3.93,3.72-7.79,5.59-11.68l.39,.26Z"/><path class="cls-2" d="M259.07,95.03c-5.28,3.22-10.64,6.3-16.55,8.27-4.87,1.63-9.83,2.82-14.97,3.12-.77,.05-1.67,.67-2.19-.47,9.2-5.24,17.9-11.2,26.13-17.85,.33-.27,.63-.59,.94-.88,2.33-2.7,4.95-5.03,8.1-6.75,9.87-8.45,18.87-17.77,27.44-27.53,1.18-1.34,2.36-2.68,3.65-4.16,.36,2.74-4.52,13.74-9.37,21.51-4.16,6.68-9.22,12.61-14.85,18.08-2.14,3.01-5.07,5.05-8.33,6.67Z"/><path class="cls-3" d="M259.07,95.03c2.78-2.22,5.55-4.44,8.33-6.67,6.78,7.34,13.56,14.67,20.63,22.32-4.87,0-9.45,0-14.03,0-.5,0-.78-.34-1.08-.64-4.85-4.79-9.55-9.71-13.84-15.01Z"/><path class="cls-3" d="M260.53,80.46c-2.6,2.37-5.22,4.71-8.1,6.75-5.87-7.61-11.62-15.3-16.64-23.51-.1-.17-.12-.39-.25-.8,3.26,0,6.41,.04,9.56-.02,1.13-.02,1.45,.81,1.95,1.46,4.26,5.57,8.67,11.01,13.47,16.13Z"/><path class="cls-1" d="M225.36,105.94c.59,.79,1.5,.13,2.19,.47-.76,.52-1.71,.54-2.43,.3-.96-.32-.13-.58,.24-.77Z"/><path class="cls-4" d="M159.22,69.61c2.08,.11,3.89,.21,5.7,.3,.92,.04,1.22,.36,1.01,1.36-1.33,6.3-2.34,12.67-3.91,18.9-2.44,9.74-12.77,14.53-22,10.46-3.74-1.65-5.76-5.29-5.53-9.96,.63-12.38,8.44-20.2,20.87-20.89,1.37-.08,2.75-.13,3.85-.18Z"/><path class="cls-4" d="M312.42,102.84c-.72,0-1.45,.05-2.17,0-6.8-.59-10.29-4.51-10.09-11.32,.27-9.71,6.82-18.27,15.76-20.58,1.76-.45,3.55-.67,5.38-.6,7.55,.3,11.97,5.35,11.27,12.88-1.07,11.48-9.44,19.67-20.14,19.62Z"/><path class="cls-4" d="M83.94,102.5c-1.72,.08-3.72-.21-5.62-.98-3.46-1.39-5.43-3.94-5.83-7.67-1.24-11.6,7.3-22.27,18.66-23.3,8.57-.78,13.72,4.22,13.17,12.77-.7,10.83-9.41,19.16-20.38,19.18Z"/><path class="cls-4" d="M204.78,83.61c-3.44-.19-6.26-.32-9.06-.73-1.37-.2-1.48-.63-.93-1.83,3.66-7.96,12.87-12.79,21.58-11.18,2.33,.43,4.36,1.45,4.92,3.98,.58,2.64-.33,4.87-2.51,6.5-2.46,1.84-5.38,2.46-8.33,2.86-2.08,.28-4.19,.29-5.67,.39Z"/></svg>