<?xml version="1.0" encoding="UTF-8"?><svg id="Capa_1" xmlns="http://www.w3.org/2000/svg" viewBox="0 0 304 72"><defs><style>.cls-1{fill:#fff;}.cls-2{fill:#00249e;}.cls-3{fill:#d07a31;}.cls-4{fill:#001a7d;}.cls-5{fill:#00239a;}.cls-6{fill:#001e8c;}.cls-7{fill:#00166d;}.cls-8{fill:#05115f;}.cls-9{fill:#002296;}.cls-10{fill:#001f8d;}.cls-11{fill:#001872;}.cls-12{fill:#00ce7c;}.cls-13{fill:#001978;}.cls-14{fill:#002192;}.cls-15{fill:#3a3e3a;}.cls-16{fill:#011263;}.cls-17{fill:#001e89;}.cls-18{fill:#001875;}.cls-19{fill:#001876;}.cls-20{fill:#001671;}.cls-21{fill:#00197b;}.cls-22{fill:#e3ab33;}.cls-23{fill:#001c86;}.cls-24{fill:#c12d34;}.cls-25{fill:#001367;}.cls-26{fill:#002191;}.cls-27{fill:#001979;}.cls-28{fill:#001b80;}.cls-29{fill:#001b82;}.cls-30{fill:#00146a;}.cls-31{fill:#001b81;}.cls-32{fill:#001a7e;}.cls-33{fill:#002b49;}</style></defs><g><path class="cls-15" d="M126.72,57.85c-.18-.18-.39-.32-.63-.42-.25-.1-.51-.15-.8-.15-.15,0-.31,.01-.48,.04-.17,.03-.33,.07-.49,.14-.16,.07-.31,.16-.45,.28-.14,.12-.27,.27-.37,.45-.17-.28-.4-.5-.7-.67-.29-.16-.63-.24-1-.24-.13,0-.26,.01-.39,.03-.14,.02-.27,.06-.4,.12-.13,.06-.26,.13-.38,.23-.12,.1-.23,.22-.33,.37v-.62h-1.07v5.08h1.08v-2.82c0-.22,.03-.41,.1-.58,.07-.17,.16-.31,.27-.42,.11-.11,.25-.2,.4-.26,.15-.06,.32-.09,.49-.09,.36,0,.64,.11,.84,.34,.2,.23,.3,.56,.3,.99v2.83h1.08v-2.82c0-.22,.03-.41,.1-.58,.07-.17,.16-.31,.27-.42,.11-.11,.25-.2,.4-.26,.15-.06,.32-.09,.49-.09,.36,0,.64,.11,.84,.34,.2,.23,.3,.56,.3,.99v2.83h1.08v-3.19c0-.3-.05-.57-.15-.82-.1-.25-.24-.46-.41-.64h0Z"/><path class="cls-15" d="M132.41,58.03c-.18-.23-.4-.41-.66-.54-.26-.14-.58-.21-.94-.21s-.69,.07-1,.2c-.31,.13-.58,.32-.81,.55-.23,.24-.41,.52-.54,.85-.13,.33-.2,.69-.2,1.07s.07,.75,.2,1.07c.13,.33,.31,.61,.54,.85,.23,.24,.5,.42,.81,.55,.31,.13,.64,.2,1,.2s.68-.07,.94-.2c.26-.13,.48-.31,.66-.54v.61h1.11v-5.08h-1.11v.62h0Zm-.04,2.57c-.07,.2-.18,.37-.31,.51-.13,.15-.3,.26-.48,.34-.19,.08-.4,.13-.63,.13s-.46-.04-.64-.13c-.19-.09-.35-.2-.48-.35-.13-.15-.23-.32-.3-.52-.07-.2-.11-.41-.11-.63s.03-.43,.11-.63,.17-.37,.3-.52c.13-.15,.29-.26,.48-.35,.19-.09,.4-.13,.64-.13s.44,.04,.63,.13c.19,.08,.35,.2,.48,.34,.13,.15,.24,.32,.31,.51,.07,.2,.11,.41,.11,.65s-.04,.45-.11,.65h0Z"/><path class="cls-15" d="M138.61,59.95c-.31-.24-.74-.4-1.3-.48l-.52-.08c-.12-.02-.23-.04-.33-.06-.1-.02-.19-.05-.26-.09-.07-.04-.13-.09-.18-.15-.04-.06-.07-.13-.07-.22,0-.18,.08-.33,.25-.44,.17-.11,.4-.17,.71-.17,.16,0,.32,.01,.47,.04,.15,.03,.3,.06,.44,.11,.14,.04,.26,.09,.38,.14,.11,.05,.21,.1,.29,.15l.48-.86c-.26-.17-.58-.3-.93-.4-.35-.09-.73-.14-1.13-.14-.32,0-.62,.04-.87,.11-.26,.08-.48,.18-.66,.32s-.32,.31-.42,.51c-.1,.2-.15,.43-.15,.68,0,.41,.15,.74,.44,.99,.29,.25,.72,.42,1.29,.5l.53,.07c.3,.04,.53,.11,.67,.2,.14,.09,.21,.21,.21,.36,0,.19-.1,.34-.29,.45-.19,.11-.48,.17-.86,.17-.21,0-.4-.01-.56-.04-.17-.03-.31-.07-.45-.11-.14-.05-.26-.1-.37-.17-.11-.06-.21-.13-.3-.2l-.51,.83c.18,.14,.38,.25,.58,.33,.2,.09,.4,.15,.59,.2,.19,.05,.38,.08,.55,.1,.17,.02,.32,.02,.46,.02,.36,0,.69-.04,.98-.12,.29-.08,.53-.2,.73-.34,.2-.15,.35-.32,.45-.52,.1-.2,.16-.43,.16-.67,0-.44-.16-.77-.47-1.02h0Z"/><path class="cls-15" d="M148.99,58.02c-.21-.24-.46-.42-.76-.55-.3-.13-.62-.19-.97-.19-.38,0-.72,.07-1.03,.19-.31,.13-.58,.31-.8,.55-.22,.24-.4,.52-.52,.85-.12,.33-.19,.69-.19,1.09s.06,.77,.19,1.1c.13,.33,.3,.61,.54,.84,.23,.23,.5,.41,.82,.54,.32,.13,.67,.19,1.05,.19s.75-.05,1.1-.16c.35-.11,.68-.29,.99-.56l-.55-.79c-.21,.17-.45,.3-.7,.4-.26,.09-.51,.14-.77,.14-.18,0-.35-.03-.52-.07-.17-.05-.32-.13-.45-.23s-.25-.24-.34-.4c-.1-.16-.16-.36-.2-.59h3.76c0-.06,.01-.13,.02-.2,0-.07,0-.14,0-.21,0-.4-.06-.76-.18-1.09-.12-.33-.28-.61-.49-.84h0Zm-3.1,1.5c.03-.18,.08-.35,.15-.51,.07-.15,.16-.29,.27-.4,.11-.11,.24-.2,.4-.26,.15-.06,.33-.09,.53-.09,.35,0,.64,.11,.86,.33,.22,.22,.36,.53,.42,.92h-2.64Z"/><path class="cls-15" d="M163.72,58.03c-.18-.23-.4-.41-.66-.54-.26-.14-.58-.21-.94-.21s-.69,.07-1,.2c-.31,.13-.58,.32-.81,.55-.23,.24-.41,.52-.54,.85-.13,.33-.2,.69-.2,1.07s.07,.75,.2,1.07c.13,.33,.31,.61,.54,.85,.23,.24,.5,.42,.81,.55,.31,.13,.64,.2,1,.2s.68-.07,.94-.2c.26-.13,.48-.31,.66-.54v.61h1.11v-5.08h-1.11v.62h0Zm-.04,2.57c-.07,.2-.18,.37-.31,.51-.13,.15-.3,.26-.48,.34-.19,.08-.4,.13-.63,.13s-.46-.04-.64-.13c-.19-.09-.35-.2-.48-.35-.13-.15-.23-.32-.3-.52-.07-.2-.11-.41-.11-.63s.03-.43,.11-.63c.07-.2,.17-.37,.3-.52,.13-.15,.29-.26,.48-.35,.19-.09,.4-.13,.64-.13s.44,.04,.63,.13c.19,.08,.35,.2,.48,.34,.13,.15,.24,.32,.31,.51,.07,.2,.11,.41,.11,.65s-.04,.45-.11,.65h0Z"/><path class="cls-15" d="M143.37,61.48c-.18,.07-.35,.1-.53,.1-.11,0-.22-.02-.32-.05-.1-.03-.18-.09-.25-.17-.07-.08-.13-.17-.17-.29-.04-.12-.06-.26-.06-.44v-2.21h1.78v-1.01h-1.78v-1.54h-1.11v1.54h-1.01v1.01h1.01v2.23c0,.68,.16,1.17,.48,1.49,.32,.32,.77,.48,1.34,.48,.32,0,.61-.05,.87-.15,.17-.07,.33-.14,.47-.22l-.38-.93c-.11,.06-.22,.11-.34,.15h0Z"/><path class="cls-15" d="M153.38,57.28c-.31,0-.59,.06-.84,.17-.25,.11-.46,.38-.63,.63v-.67h-1.01v5.08h1.02v-2.79c0-.22,.03-.41,.09-.58,.06-.17,.14-.31,.25-.43,.11-.12,.23-.21,.38-.26,.15-.06,.31-.09,.49-.09,.13,0,.28,.02,.44,.05,.08,.02,.15,.04,.22,.06l.33-1.06c-.09-.03-.18-.05-.27-.07-.14-.02-.29-.03-.46-.03h0Z"/><path class="cls-15" d="M168.79,57.28c-.31,0-.59,.06-.84,.17-.25,.11-.46,.38-.63,.63v-.67h-1.01v5.08h1.02v-2.79c0-.22,.03-.41,.09-.58,.06-.17,.14-.31,.25-.43,.11-.12,.23-.21,.38-.26,.15-.06,.31-.09,.49-.09,.13,0,.28,.02,.44,.05,.08,.02,.15,.04,.22,.06l.33-1.06c-.09-.03-.18-.05-.27-.07-.14-.02-.29-.03-.46-.03h0Z"/><path class="cls-15" d="M173.96,55.35v2.68c-.18-.23-.4-.41-.66-.54s-.58-.21-.94-.21-.69,.07-1,.2c-.31,.13-.58,.32-.81,.55-.23,.24-.41,.52-.54,.85-.13,.33-.2,.69-.2,1.07s.07,.75,.2,1.07c.13,.33,.31,.61,.54,.85,.23,.24,.5,.42,.81,.55,.31,.13,.64,.2,1,.2s.68-.07,.94-.2c.26-.13,.48-.31,.66-.54v.61h1.11v-7.15h-1.11Zm-.04,5.25c-.07,.2-.18,.37-.31,.51-.13,.15-.3,.26-.48,.34-.19,.08-.4,.13-.63,.13s-.46-.04-.64-.13c-.19-.09-.35-.2-.48-.35-.13-.15-.23-.32-.3-.52-.07-.2-.11-.41-.11-.63s.03-.43,.11-.63c.07-.2,.17-.37,.3-.52,.13-.15,.29-.26,.48-.35,.19-.09,.4-.13,.64-.13s.44,.04,.63,.13c.19,.08,.35,.2,.48,.34,.13,.15,.24,.32,.31,.51,.07,.2,.11,.41,.11,.65s-.04,.45-.11,.65h0Z"/><path class="cls-15" d="M156.03,58.78c.14-.14,.31-.25,.5-.33,.19-.08,.4-.12,.63-.12,.25,0,.48,.04,.7,.12,.21,.08,.39,.18,.54,.32l.53-.89c-.2-.16-.42-.29-.68-.39-.33-.14-.7-.21-1.09-.21s-.76,.07-1.09,.21c-.33,.14-.62,.32-.86,.56-.24,.24-.43,.52-.57,.85-.14,.32-.21,.68-.21,1.06s.07,.74,.21,1.06c.14,.32,.33,.61,.57,.85,.24,.24,.53,.43,.86,.56,.33,.14,.7,.21,1.09,.21s.75-.07,1.09-.21c.25-.1,.48-.23,.68-.39l-.53-.89c-.15,.14-.33,.24-.54,.32-.21,.08-.44,.12-.7,.12-.23,0-.44-.04-.63-.12-.19-.08-.36-.19-.5-.33s-.25-.31-.33-.51c-.08-.2-.12-.42-.12-.66s.04-.46,.12-.66c.08-.2,.19-.37,.33-.51h0Z"/><path class="cls-15" d="M177.41,61.75c.07,0,.14,.01,.21,.04,.07,.03,.12,.07,.17,.11,.05,.05,.09,.1,.11,.17,.03,.06,.04,.13,.04,.2s-.01,.14-.04,.2c-.03,.06-.07,.12-.11,.17-.05,.05-.11,.09-.17,.11-.07,.03-.13,.04-.21,.04s-.15-.01-.21-.04c-.07-.03-.12-.07-.17-.11-.05-.05-.09-.1-.11-.17-.03-.06-.04-.13-.04-.2s.01-.14,.04-.2c.03-.06,.07-.12,.11-.17,.05-.05,.11-.08,.17-.11,.07-.03,.14-.04,.21-.04Zm0,.89c.05,0,.1,0,.15-.03,.05-.02,.09-.05,.12-.08,.03-.03,.06-.07,.08-.12,.02-.05,.03-.09,.03-.15s0-.1-.03-.15c-.02-.05-.05-.09-.08-.12-.03-.03-.07-.06-.12-.08-.05-.02-.09-.03-.15-.03s-.1,0-.15,.03c-.05,.02-.09,.05-.12,.08-.03,.03-.06,.07-.08,.12-.02,.05-.03,.09-.03,.15s0,.1,.03,.15c.02,.05,.05,.09,.08,.12,.03,.03,.07,.06,.12,.08s.09,.03,.15,.03Zm.03-.6c.06,0,.11,.01,.14,.04,.03,.03,.05,.07,.05,.11,0,.04-.01,.07-.03,.09-.02,.02-.06,.04-.1,.05l.14,.17h-.15l-.13-.16h-.01v.16h-.13v-.46h.23Zm-.1,.11v.08h.1s.03,0,.05,0c.01,0,.02-.02,.02-.03,0-.01,0-.03-.02-.03-.01,0-.03-.01-.05-.01h-.1Z"/><path class="cls-24" d="M139.84,33.66c0-6.09,2.84-11.51,7.27-15.01-3.26-2.59-7.39-4.14-11.88-4.14-10.58,0-19.15,8.57-19.15,19.15s8.57,19.15,19.15,19.15c4.49,0,8.61-1.55,11.88-4.13-4.43-3.51-7.27-8.93-7.27-15.01h0Z"/><path class="cls-3" d="M139.84,33.66c0,6.09,2.84,11.51,7.27,15.01,4.43-3.51,7.27-8.93,7.27-15.01s-2.84-11.51-7.27-15.01c-4.43,3.51-7.27,8.93-7.27,15.01Z"/><path class="cls-22" d="M176.84,44.02v-.56h-.23v-.15h.62v.15h-.23v.56h-.17Zm1.2,0v-.5l-.16,.43h-.18l-.16-.43v.5h-.17v-.72h.24l.18,.46,.18-.46h.24v.72h-.17Z"/><path class="cls-22" d="M158.99,14.51c-4.49,0-8.61,1.55-11.88,4.13,4.43,3.51,7.27,8.93,7.27,15.01s-2.84,11.51-7.27,15.01c3.26,2.59,7.39,4.13,11.88,4.13,10.58,0,19.15-8.57,19.15-19.15s-8.57-19.15-19.15-19.15Z"/></g><g><path class="cls-33" d="M220.68,13.74c.86-.7,1.98-1.05,3.33-1.05,1.51,0,2.68,.34,3.53,1.02,.85,.68,1.25,1.7,1.21,3.06-.11,5.7-.17,14.2-.17,25.52,0,.66,.03,1.7,.08,3.12,.06,1.41,.06,2.45,.03,3.11-.07,1.36-.41,2.36-1.02,3-.61,.64-1.7,1.04-3.28,1.19-1.65,.18-2.91-.18-3.78-1.1-.86-.92-1.31-2.55-1.35-4.91-.15-5.51-.13-15.49,.05-29.93,.04-1.32,.49-2.33,1.35-3.03"/><path class="cls-33" d="M261.15,43.34c0,1.87,.06,3.75,.17,5.62,0,2.5-1.54,3.75-4.63,3.75-1.91,0-3.2-1.12-3.86-3.36-1.43,2.35-3.64,3.53-6.62,3.53-3.75,0-6.75-1.18-9.01-3.53-2.26-2.35-3.39-5.35-3.39-8.99,0-4.12,1.23-7.41,3.69-9.89,2.46-2.48,5.59-3.72,9.37-3.72,2.76,0,4.81,.97,6.17,2.92,.15-.55,.37-1.03,.66-1.43,.66-.92,1.76-1.38,3.31-1.38,2.79,0,4.19,1.3,4.19,3.91l-.06,4.25v8.32Zm-16.46,.5c.85,.99,1.91,1.49,3.2,1.49,1.4,0,2.58-.51,3.56-1.52,.97-1.01,1.46-2.36,1.46-4.05s-.46-2.96-1.38-3.91c-.92-.96-2.04-1.43-3.36-1.43-1.43,0-2.58,.51-3.45,1.52-.86,1.01-1.3,2.42-1.3,4.22,0,1.47,.42,2.7,1.27,3.69"/><path class="cls-33" d="M271.79,26.64c1.98,0,3.22,.83,3.69,2.48l.28,1.1c.7-1.14,1.7-2.03,3-2.67,1.3-.64,2.71-.97,4.22-.97,3.71,0,6.64,1.2,8.79,3.61,2.15,2.41,3.23,5.54,3.23,9.4s-1.22,7.06-3.67,9.59c-2.44,2.54-5.63,3.8-9.56,3.8-2.5,0-4.37-.75-5.62-2.26,0,.18,0,.68,.03,1.49,.02,.81,.03,1.38,.03,1.71s.02,1.26,.06,2.78c.04,1.53,.06,2.8,.06,3.83,0,1.47-.41,2.55-1.24,3.25-.83,.7-2.12,1.05-3.89,1.05-2.65,0-3.97-1.36-3.97-4.08l.11-21.28-.06-9.04c.04-2.54,1.54-3.8,4.52-3.8m12.73,9.07c-.96-.94-2.06-1.41-3.31-1.41-1.36,0-2.54,.5-3.56,1.49-1.01,.99-1.52,2.28-1.52,3.86,0,3.79,1.65,5.68,4.96,5.68,1.43,0,2.6-.54,3.5-1.63,.9-1.08,1.35-2.51,1.35-4.27,0-1.54-.48-2.78-1.43-3.72"/><path class="cls-12" d="M198.94,44.66l-.06,4.52c-.07,2.5-1.54,3.75-4.4,3.75-1.37,0-2.48-.36-3.32-1.07-.84-.72-1.24-1.72-1.2-3l.11-5.29c0-1.95-.02-5.66-.06-11.13-.04-5.48-.04-9.83,0-13.06,0-.29,0-.83-.03-1.6-.02-.77-.03-1.31-.03-1.6,0-1.14,.47-2.04,1.42-2.7,.95-.66,2.01-.99,3.2-.99,1.37,0,2.49,.29,3.34,.88,.85,.59,1.28,1.47,1.28,2.65,0,1.47-.09,7.94-.28,19.4v9.26Z"/><path class="cls-12" d="M212.14,51.37h0c-1.59,1.77-4.31,1.92-6.07,.33l-9.54-8.55c-1.53-1.37-1.66-3.72-.29-5.25,1.8-2.01,4.89-2.18,6.89-.38l8.68,7.78c1.77,1.59,1.92,4.31,.33,6.07"/><path class="cls-12" d="M212.13,28.36h0c1.63,1.76,1.51,4.51-.25,6.14l-9.63,8.87c-1.27,1.17-3.26,1.09-4.43-.18l-.85-.92c-1.61-1.74-1.5-4.46,.25-6.07l8.77-8.08c1.76-1.63,4.51-1.51,6.14,.25"/><path class="cls-33" d="M198.96,34.59l-4.19,3.83c-.95,.87-.94,2.37,.03,3.23l4.14,3.66,.02-10.72Z"/></g><g><path class="cls-25" d="M27.15,52.61c-.14,.44-.34,.84-.51,1.27-.14,.34-.29,.68-.42,1.02-.06,.17-.16,.21-.32,.21-.36-.01-.72,0-1.08,0-2.45,0-4.9,0-7.35,0-.1,0-.21,.06-.3-.05,.12-.11,.28-.08,.42-.08,1.12,0,2.24,0,3.36,0,.34,0,.36-.03,.24-.35-1.54-4.02-3.09-8.04-4.63-12.06-1.83-4.77-3.67-9.55-5.49-14.32-.7-1.83-1.41-3.66-2.11-5.5-.08-.21-.19-.34-.44-.33-1.48,.01-2.96,0-4.44,.01-1.22,.01-2.45,0-3.67,0-.08,0-.16,0-.23-.04,0-.06,.02-.09,.08-.1,.08,0,.16,0,.23,0,4.65,0,9.3,0,13.95,0,.95,0,1.83,.22,2.59,.81,.85,.66,1.32,1.54,1.52,2.58,.68,3.6,1.36,7.19,2.03,10.79,.49,2.62,.99,5.25,1.48,7.87,.01,.07,.01,.14,.09,.2,.18-.46,.36-.92,.55-1.38,.14-.33,.24-.67,.41-.99,.18,.17,.27,.4,.36,.63,1.18,3.06,2.34,6.13,3.52,9.19,.08,.2,.22,.4,.15,.63Z"/><path class="cls-5" d="M104.19,51.02s.02,.03,0,.05c.06,.07,0,.17,.05,.24,.02,.01,.02,.03,0,.05,.05,.07,0,.17,.05,.24,.02,.01,.02,.03,0,.04,.05,.08,0,.17,.05,.25,.02,.01,.02,.02,0,.04,.05,.08-.01,.18,.05,.25h.01v.03c.02,.06,0,.14,.04,.2,.02,.02,.02,.03,0,.05,.06,.07,0,.17,.05,.24,.02,.01,.02,.03,0,.05,.05,.07,0,.17,.05,.24,.02,.01,.02,.03,0,.04,.05,.08,0,.18,.05,.25,.02,.01,.02,.02,0,.04,.03,.06,0,.14,.04,.19v.09c.04,.06,.02,.14,.06,.2,.02,.02,.02,.03,0,.05,.06,.07,0,.17,.05,.24,.02,.01,.02,.03,0,.05,.05,.07,0,.17,.05,.24,.02,.01,.02,.03,0,.04,.05,.08-.01,.18,.05,.25v.04c.04,.06,.01,.14,.05,.2,.04,.09,.07,.17-.08,.17-.06,0-.12,0-.17,0-2.42,0-4.83,0-7.25,0-.08,0-.16,0-.23,0-.06,0-.07-.05-.07-.1,.13-.06,.27-.02,.4-.02,.7,0,1.4,0,2.1,0,.43,0,.43,0,.27-.42-.23-.61-.47-1.22-.7-1.82-1.47-3.82-2.94-7.64-4.4-11.46-.36-.94-.74-1.88-1.07-2.84-.04-.1-.05,.03-.08,.01-.13-.06-.12-.19-.15-.3-.37-1.71-.72-3.42-1.07-5.13-.11-.51-.23-1.02-.32-1.56-.12,.29-.21,.57-.31,.85-.04,.11-.07,.25-.2,.31-.17-.08-.21-.25-.26-.4-.7-1.8-1.39-3.61-2.08-5.41-.41-1.08-.83-2.16-1.24-3.24,.7-.78,1.56-1.19,2.61-1.23,.64-.05,1.28-.01,1.92-.02,.37,0,.74,.01,1.11,0,.22-.01,.33,.06,.41,.27,.57,1.55,1.18,3.08,1.77,4.63,.88,2.3,1.76,4.59,2.64,6.88,1.42,3.69,2.83,7.38,4.25,11.07,.08,.2,.21,.37,.29,.57,.02,.02,.02,.03,0,.05,.06,.07,0,.17,.05,.24,.02,.01,.02,.03,0,.05,.05,.07,0,.17,.05,.24,.02,.01,.02,.03,0,.04,.05,.08,0,.17,.05,.25,.02,.01,.02,.02,0,.04,.05,.08-.01,.18,.05,.25h.01v.03c.02,.06,0,.14,.04,.2,.02,.02,.02,.03,0,.05,.06,.07,0,.17,.05,.24,.02,.01,.02,.03,0,.05,.05,.07,0,.17,.05,.24,.02,.01,.02,.03,0,.04,.05,.08,0,.18,.05,.25,.02,0,.02,.02,0,.04,.03,.06,0,.14,.04,.2v.09c.04,.06,.02,.14,.06,.2,.02,.02,.02,.03,0,.05,.06,.07,0,.17,.05,.24,.02,.01,.02,.03,0,.05,.05,.07,0,.17,.05,.24,.02,.01,.02,.03,0,.04,.05,.08-.01,.18,.05,.25v.04c.04,.06,.01,.14,.05,.2v.09c.04,.06,.02,.14,.06,.2,.02,.01,.02,.03,0,.05,.05,.07,0,.17,.05,.24,.02,.01,.02,.03,0,.05,.05,.07,0,.17,.05,.25,.02,.01,.02,.02,0,.04,.05,.08-.01,.18,.05,.25h.01v.03c.02,.06,0,.14,.04,.2Z"/><path class="cls-23" d="M66.14,45.95c0-.29,.04-.58-.02-.87-.09-.45-.3-.84-.6-1.18-.36-.41-.79-.74-1.25-1.04-.33-.22-.67-.42-1.01-.63-.09-.61-.38-1.16-.6-1.73-1.42-3.71-2.84-7.41-4.26-11.12-.41-1.08-.82-2.16-1.25-3.23-.04-.11-.09-.22-.02-.33,.4-.47,.88-.84,1.38-1.2,1.05-.77,2.2-1.35,3.41-1.8,.04-.01,.08-.01,.11-.02,.17-.06,.19,.08,.23,.18,.55,1.47,1.12,2.93,1.68,4.39,.2,.52,.39,1.03,.59,1.55,.04,.11,.12,.22,.07,.36-.31,.22-.63,.42-.88,.71-.3,.34-.51,.73-.57,1.19-.07,.54,.09,1.02,.41,1.45,.25,.33,.55,.6,.88,.85,.63,.47,1.32,.85,2.01,1.23,.13,.07,.26,.12,.38,.22,.21,.45,.36,.92,.54,1.38,.81,2.1,1.62,4.21,2.42,6.31,.94,2.46,1.89,4.91,2.83,7.37,.06,.16,.13,.33,.2,.49,.04,.09,.09,.18,.02,.27-.45,.62-1,1.13-1.59,1.6-.62,.51-1.3,.94-2.01,1.32-.04,.02-.09,.03-.13,.05-.9-2.39-1.82-4.78-2.74-7.16-.08-.2-.13-.41-.23-.59Z"/><path class="cls-14" d="M80.43,41.22c.08-.31,.23-.59,.35-.89,1.19-2.84,2.37-5.67,3.56-8.5,.03-.08,.05-.17,.12-.23,.11-.14,.17-.03,.21,.05,.09,.15,.14,.32,.21,.48,.95,2.49,1.91,4.98,2.87,7.47,.24,.62,.46,1.26,.74,1.87-.03,.36-.2,.68-.32,1.02-.08,.23-.15,.46-.24,.68-.08,.18,0,.25,.17,.25,.25,0,.5,0,.75,0,.12,0,.25-.01,.36,.07,.2,.32,.29,.68,.42,1.02,.64,1.67,1.28,3.34,1.92,5q.25,.66-.45,.66c-1.86,0-3.71,0-5.57,0-.11,0-.27-.07-.32,.11-.16,.55-.36,1.09-.58,1.62-.14-.08-.19-.22-.24-.35-1.16-3.06-2.35-6.11-3.51-9.17-.15-.39-.3-.78-.46-1.17Z"/><path class="cls-27" d="M40.46,36.62c.18-.86,.36-1.72,.54-2.59,.59-2.78,1.19-5.55,1.78-8.33,.05-.24,.07-.48,.17-.7,.14,.08,.19,.21,.24,.35,1.37,3.63,2.78,7.25,4.16,10.87,.33,.85,.64,1.71,1,2.55,.04,.1,.09,.2,.03,.31-.05,.44-.17,.87-.26,1.31-.69,3.25-1.39,6.5-2.09,9.75-.03,.12-.06,.24-.1,.36-.23,.01-.25-.19-.3-.33-.31-.77-.6-1.54-.89-2.31-.81-2.12-1.62-4.23-2.43-6.34-.58-1.51-1.15-3.01-1.73-4.52-.05-.13-.09-.26-.12-.39Z"/><path class="cls-16" d="M4.14,22.34c.77,0,1.54,0,2.3,0,.72,0,1.44,0,2.16,0,.19,0,.29,.05,.36,.24,.27,.75,.56,1.49,.85,2.23,.33,.85,.65,1.7,.98,2.55,.33,.86,.66,1.72,.99,2.58,.31,.8,.62,1.61,.93,2.41,.28,.72,.56,1.45,.83,2.17,.27,.7,.53,1.39,.8,2.09,.28,.72,.56,1.45,.83,2.17,.27,.7,.53,1.39,.8,2.09,.28,.72,.55,1.45,.83,2.17,.27,.7,.53,1.39,.8,2.09,.28,.72,.55,1.45,.83,2.17,.27,.71,.54,1.41,.81,2.12,.28,.72,.55,1.45,.83,2.17,.33,.85,.65,1.7,.98,2.55,.08,.2,.16,.4,.23,.6,.11,.31,.09,.34-.23,.34-1.01,0-2.02,0-3.03,0-.29,0-.58,0-.88,0-.1-.15-.11-.33-.15-.49-1.84-7.11-3.68-14.22-5.51-21.34-.4-1.56-.83-3.11-1.21-4.68-.3-1.23-1-2.09-2.14-2.63-1.03-.49-2.08-.91-3.15-1.29-.05-.02-.12-.02-.16-.07-.14-.59-.41-1.13-.61-1.69-.06-.16-.19-.33-.08-.52Z"/><path class="cls-6" d="M80.43,41.22c.14,.08,.18,.23,.23,.36,.44,1.14,.88,2.29,1.32,3.44,.38,1,.76,2.01,1.14,3.01,.35,.91,.71,1.82,1.06,2.73,.06,.15,.12,.31,.17,.46,.08,.24,.19,.46,.29,.69-.05,.24-.15,.46-.23,.69-.27,.76-.55,1.51-.82,2.27-.05,.15-.11,.23-.3,.23-2.83,0-5.66,0-8.49,0-.06,0-.11,0-.16,0-.02-.12,.05-.2,.08-.29,1.86-4.45,3.73-8.9,5.6-13.35,.03-.08,.05-.17,.12-.23Z"/><path class="cls-19" d="M40.46,36.62c.23,.31,.31,.68,.45,1.03,.28,.7,.55,1.41,.82,2.11,.28,.72,.55,1.45,.83,2.17,.27,.7,.54,1.39,.81,2.09,.28,.72,.55,1.45,.83,2.17,.33,.85,.65,1.7,.98,2.55,.18,.46,.35,.92,.53,1.38,.06,.14,.09,.3,.25,.38-.09,.63-.26,1.25-.38,1.88-.16,.81-.34,1.61-.52,2.42-.01,.06-.03,.11-.04,.17-.01,.1-.06,.13-.16,.13-.07,0-.14,0-.2,0-2.61,0-5.23,0-7.84,0-.09,0-.2,.06-.28-.05,.13-.11,.3-.08,.45-.08,1.61,0,3.23,0,4.84,0,.4,0,.41-.02,.26-.39-1.13-2.96-2.27-5.91-3.4-8.87-.04-.11-.05-.23-.09-.34,.14-.68,.28-1.37,.42-2.05,.4-1.87,.8-3.74,1.2-5.61,.02-.09,.05-.19,.07-.28,.02-.04,.02-.09,.04-.13,0-.06,0-.11,.02-.16,.01-.04,.01-.09,.04-.12l.02-.11s.03-.1,.04-.14c-.01-.05,0-.1,.02-.14Z"/><path class="cls-7" d="M32.87,38.96c-.16,.5-.39,.97-.59,1.45-.85,2.04-1.71,4.08-2.57,6.12-.03,.08-.05,.17-.12,.23-.28-.43-.41-.92-.59-1.39-.88-2.29-1.77-4.59-2.64-6.88-.23-.6-.47-1.19-.69-1.8-.06-.16-.15-.29-.23-.44,.16-.54,.4-1.05,.6-1.57,.81-2.06,1.63-4.12,2.45-6.18,.03-.08,.07-.16,.11-.23,.24-.05,.24,.15,.29,.28,.31,.76,.59,1.52,.88,2.28,.81,2.12,1.63,4.24,2.44,6.36,.21,.53,.39,1.08,.63,1.6,.02,.05,.05,.11,.02,.17Z"/><path class="cls-4" d="M48.39,39.09c0-.06,0-.12-.03-.17-.35-.61-.53-1.29-.79-1.93-.29-.7-.55-1.41-.82-2.11-.28-.72-.55-1.45-.83-2.17-.33-.85-.65-1.7-.98-2.55-.33-.85-.66-1.7-.98-2.55-.29-.76-.57-1.52-.86-2.29-.04-.11-.15-.18-.15-.31,.06-.53,.22-1.04,.31-1.56,.06-.33,.14-.66,.21-.99,0-.05,0-.1,.06-.12,.07-.05,.15-.03,.23-.03,1.2,0,2.41,0,3.61,0,.23,0,.35,.08,.43,.29,.81,2.16,1.66,4.31,2.47,6.48,.06,.15,.17,.28,.16,.46-.07,.53-.2,1.05-.32,1.57-.56,2.62-1.12,5.24-1.68,7.86,0,.05-.03,.09-.05,.13Z"/><path class="cls-31" d="M57.14,25.82c.03,.28,.18,.51,.27,.76,.44,1.15,.89,2.29,1.32,3.45,.34,.92,.71,1.82,1.06,2.74,.39,1,.76,2.01,1.15,3.01,.31,.81,.63,1.63,.94,2.44,.33,.85,.65,1.7,.98,2.55,.12,.33,.26,.65,.38,.98,.06,.16,.18,.32,.03,.49h0c-.02-.05-.08-.04-.12-.07h0s-.08-.03-.11-.06h0s-.08-.03-.11-.06h0s-.08-.02-.11-.06h0s-.05-.05-.08-.05h-.03s-.05-.05-.08-.06h-.02v-.02s-.06-.04-.09-.04h-.02l-.02-.02s-.04-.04-.07-.04h-.02l-.02-.02s-.04-.04-.07-.04h-.03l-.02-.02s-.04-.04-.07-.04h-.03l-.02-.02s-.04-.04-.07-.04h-.02l-.02-.02s-.04-.04-.08-.04h-.02l-.02-.02s-.05-.04-.08-.04h-.02l-.02-.02s-.05-.04-.08-.04h-.02l-.02-.02s-.05-.04-.08-.04c-.23-.06-.42-.19-.63-.3-1.29-.68-2.53-1.44-3.63-2.41-1.02-.9-1.86-1.93-2.41-3.18-.53-1.21-.65-2.47-.54-3.76,.16-1.79,.79-3.41,1.87-4.85,.07-.09,.13-.2,.22-.26,.02-.02,.03-.04,.05-.06h0s.04-.04,.06-.07c.01-.05,.05-.08,.09-.11,0-.02,.01-.04,.04-.04h.01s.02-.05,.05-.06h0s.03-.05,.05-.06h0s.04-.04,.05-.06h0s.04-.04,.06-.06c.06-.1,.13-.18,.23-.24Z"/><path class="cls-9" d="M88.44,41.47c-.2-.26-.28-.57-.39-.87-.59-1.57-1.2-3.14-1.81-4.71-.48-1.25-.95-2.51-1.43-3.77-.06-.16-.14-.32-.2-.48-.03-.08-.08-.07-.14-.04,.02-.16,.1-.29,.16-.43,.55-1.32,1.1-2.63,1.65-3.94,.03-.08,.08-.16,.12-.23,.03-.03,.02-.08,.05-.12h0s.03-.09,.05-.13c0-.02,0-.03,.01-.05,.03-.03,.02-.08,.05-.11h0s.03-.09,.05-.12h0s.04-.09,.06-.13c0-.02,0-.03,.01-.04,.03-.03,.02-.08,.05-.12h0s.03-.09,.05-.13c0-.02,0-.04,.02-.05,.02-.03,.04-.05,.04-.08v-.02h.01s.02-.1,.05-.13h0s.03-.09,.06-.13c0-.02,0-.03,.01-.04,.03-.03,.02-.08,.05-.11h0s.03-.09,.05-.12h0s.04-.09,.06-.13c0-.02,0-.03,.01-.03,.03-.03,.02-.08,.05-.12h0s.03-.09,.05-.13c0-.02,0-.03,.01-.04,.03-.03,.02-.08,.05-.11h0s.03-.09,.05-.12h0s.03-.08,.06-.12h0s.04-.08,.06-.12h0c.05-.02,.04-.08,.06-.11h0s.03-.08,.06-.11h0s.02-.08,.06-.11h0s.03-.05,.05-.07h0s.03-.08,.07-.1h0s.03-.05,.05-.07h0s.05-.04,.05-.07h0s.06-.04,.06-.07c0-.02,0-.03,.03-.04,0-.02,.02-.04,.04-.05h0s.03-.05,.05-.06h0c.13,.06,.16,.19,.2,.3,.38,1,.76,2.01,1.14,3.01,.41,1.07,.83,2.15,1.25,3.22,.26,.69,.53,1.37,.78,2.06,.06,.15,.16,.29,.19,.46,.01,.02,.01,.04,0,.06,0,.03-.02,.06-.03,.09,0,.02-.02,.04-.02,.06,0,.03-.02,.06-.03,.09,0,.02-.01,.04-.02,.06-.02,.04-.03,.08-.04,.12,0,.02-.01,.04-.02,.06-.01,.03-.02,.06-.03,.09,0,.02-.01,.04-.02,.06-.01,.03-.03,.06-.04,.09,0,.02-.02,.04-.03,.06-.01,.03-.02,.06-.03,.09,0,.02-.01,.04-.02,.06-.02,.04-.03,.08-.04,.12,0,.02-.01,.04-.02,.06-.01,.03-.02,.06-.03,.09,0,.02-.01,.04-.02,.06-.02,.04-.03,.08-.04,.12,0,.02-.01,.04-.02,.06-.01,.03-.03,.06-.04,.09,0,.02-.02,.04-.03,.06-.01,.03-.02,.06-.03,.09,0,.02-.01,.04-.02,.06-.01,.03-.02,.06-.03,.09,0,.02-.01,.04-.02,.06-.02,.04-.03,.08-.04,.12,0,.02-.01,.04-.02,.06-.01,.03-.03,.06-.04,.09,0,.02-.02,.04-.03,.06-.01,.03-.02,.06-.03,.09,0,.02-.01,.04-.02,.06-.01,.03-.02,.06-.03,.09,0,.02-.01,.04-.02,.06-.02,.04-.03,.08-.04,.12,0,.02-.01,.04-.02,.06-.01,.03-.03,.06-.04,.09,0,.02-.02,.04-.03,.06-.01,.03-.02,.06-.03,.09,0,.02-.01,.04-.02,.06-.02,.04-.03,.08-.04,.13,0,.02-.01,.05-.02,.07-.01,.05-.02,.1-.02,.15-.22,.71-.49,1.39-.74,2.09-.37,1.02-.73,2.05-1.12,3.06-.04,.1-.04,.24-.19,.26Z"/><path class="cls-32" d="M61.52,55.57c-.95,.09-1.9,.04-2.85-.01-1.21-.07-2.41-.22-3.6-.45-.15-.03-.31-.04-.45-.11-.34-.75-.6-1.54-.91-2.3-.55-1.39-1.05-2.8-1.63-4.18-.05-.12-.08-.24-.03-.37,.06-.49,.19-.96,.3-1.47,.36,.16,.69,.32,1.02,.47,1.35,.61,2.74,1.08,4.2,1.34,.59,.1,1.19,.17,1.79,.22,.08,.02,.17,0,.24,.03h1.96c-.04,.19-.19,.13-.3,.14-.4,.02-.4,.02-.25,.41,.73,1.93,1.49,3.85,2.21,5.79,.04,.11,.11,.21,.04,.33h0c-.09,.05-.2-.01-.3,.04-.05,.02-.11,.03-.16,.01-.13,.06-.28-.01-.42,.05-.09,.02-.18,.04-.27,.01-.2,.06-.41-.02-.6,.04Z"/><path class="cls-9" d="M85.23,50.3c0-.08,.02-.14,.11-.14,.09,0,.17,0,.26,0,1.91,0,3.83,0,5.74,0,.1,0,.21,.03,.32-.03-.02-.19-.1-.37-.17-.55-.44-1.15-.87-2.3-1.32-3.44-.32-.83-.65-1.66-.95-2.49-.02-.05-.02-.09-.04-.14,.13-.11,.3-.08,.45-.08,1.47,0,2.93,0,4.4,0,.08,0,.16,0,.23,0,.35,0,.38-.03,.31-.37-.07-.38-.16-.76-.23-1.14-.15-.76-.35-1.51-.45-2.28,0-.08,0-.15-.02-.23,0-.03-.01-.05-.02-.08-.01-.08-.01-.16-.04-.23,0-.02-.01-.05-.02-.07,0-.07-.01-.15-.04-.22,0-.02-.01-.05-.02-.07,0-.07-.01-.14-.03-.21,0-.02,0-.05,.01-.07l.02-.14s.03,0,.04,0c0,0,.02,0,.02,.01,.05,.11,.11,.23,.15,.34,2.08,5.44,4.17,10.89,6.24,16.31-.06,.1-.13,.08-.2,.08-.85,0-1.69,0-2.54,0-.1,0-.19,0-.28-.06-.15-.53-.24-1.08-.35-1.62-.21-.97-.4-1.94-.61-2.91-.06-.26-.06-.26-.31-.26-3.47,0-6.94,0-10.41,0-.1,0-.22-.03-.29,.09Z"/><path class="cls-17" d="M72.85,50.74c-.17-.44-.35-.88-.52-1.32-.28-.72-.55-1.45-.83-2.17-.27-.7-.54-1.39-.8-2.09-.28-.72-.55-1.45-.83-2.17-.27-.7-.54-1.39-.8-2.09-.28-.72-.55-1.45-.83-2.17-.27-.71-.54-1.41-.81-2.11-.17-.43-.34-.87-.5-1.3-.05-.12-.05-.26-.07-.4,.63,.29,1.23,.63,1.83,.96,1.23,.67,2.42,1.4,3.48,2.33,1.02,.9,1.84,1.94,2.35,3.22,.36,.9,.53,1.83,.54,2.79,.02,1.56-.26,3.07-.91,4.5-.34,.73-.74,1.43-1.28,2.04Z"/><path class="cls-2" d="M103.08,45.72c-.2-.18-.31-.41-.41-.66-.34-.91-.69-1.81-1.04-2.71-.29-.75-.57-1.5-.86-2.25-.32-.83-.64-1.66-.96-2.49-.33-.85-.65-1.7-.98-2.55-.31-.81-.62-1.63-.94-2.44-.28-.72-.55-1.45-.83-2.17-.27-.7-.54-1.39-.8-2.09-.29-.75-.57-1.5-.86-2.25-.25-.66-.51-1.32-.76-1.98-.2-.52-.4-1.03-.59-1.55-.09-.24-.09-.25-.35-.25-1,0-2,0-3,0,.12-.05,.25-.03,.37-.03,2.28,0,4.57,0,6.85,0,.27,0,.27,0,.33,.27,.62,2.96,1.24,5.92,1.86,8.89,.61,2.93,1.23,5.87,1.84,8.8,.37,1.78,.75,3.57,1.12,5.35,0,.04,0,.08,0,.12Z"/><path class="cls-10" d="M75.6,27.76c-.08,.56-.22,1.1-.34,1.65-.05,.22-.07,.46-.17,.68-.6-.26-1.19-.5-1.8-.7-1.85-.6-3.73-.9-5.68-.82-.07,0-.14,0-.2,0,.04-.16,.18-.12,.28-.13,.27,0,.54,0,.82,0,.28,0,.3-.02,.2-.28-.23-.62-.47-1.23-.71-1.85-.49-1.29-.98-2.57-1.48-3.86-.05-.13-.09-.26-.13-.39-.02-.1-.04-.19,.08-.25,.99-.13,1.99-.14,2.99-.11,1.24,.05,2.47,.19,3.69,.45,.06,.01,.12,.01,.16,.05,.12,.05,.21,.11,.26,.24,.65,1.75,1.33,3.48,2,5.22,.01,.03,.02,.06,.03,.08Z"/><path class="cls-30" d="M25.45,36.27c.18,.01,.21,.17,.25,.28,.12,.29,.22,.58,.33,.87,.34,.88,.67,1.75,1.01,2.63,.32,.85,.65,1.7,.97,2.55,.31,.81,.63,1.62,.94,2.44,.21,.53,.41,1.06,.62,1.6,.02,.04,.01,.1,.02,.14h0s-.03,.08-.05,.12h0c-.05,.03-.04,.09-.06,.14v.02h-.01s-.02,.1-.05,.13h0s-.04,.09-.06,.13c0,.02,0,.03-.01,.04-.03,.03-.02,.08-.05,.12h0s-.03,.08-.05,.12h0s-.04,.09-.06,.14v.02h-.01s-.02,.1-.05,.13h0s-.03,.09-.06,.13c0,.02,0,.03-.01,.04-.03,.03-.02,.08-.05,.11h0s-.03,.09-.05,.12h0s-.04,.09-.06,.13c0,.02,0,.03-.01,.04-.03,.03-.02,.09-.05,.12-.04,.2-.14,.38-.22,.56-.45,1.08-.9,2.16-1.36,3.24-.03,.08-.05,.17-.12,.23-.21-.56-.42-1.12-.64-1.68-.29-.76-.58-1.52-.87-2.27-.26-.67-.51-1.33-.77-2-.28-.73-.56-1.46-.84-2.19-.25-.64-.5-1.28-.74-1.92-.05-.13-.22-.21-.18-.38h0s.03-.09,.05-.13h0c.07-.03,.02-.12,.07-.17h0s.03-.08,.05-.13h0c.07-.03,.02-.12,.07-.17h0s.03-.08,.05-.13h0c.08-.03,.02-.12,.07-.17h0s.03-.09,.05-.14c0-.02,0-.03,.01-.04,.03-.03,.02-.08,.05-.12h0s.04-.09,.05-.14c0-.02,0-.03,.01-.03,.03-.03,.02-.08,.05-.12h0s.04-.09,.06-.14v-.02h.01s.02-.1,.05-.14c.13-.44,.33-.86,.49-1.29,.1-.27,.19-.54,.33-.8,.03-.03,.02-.09,.05-.12l.02-.05s.04-.05,.04-.08v-.02h.01s.02-.1,.05-.14c0-.02,0-.04,.01-.05,.02-.03,.04-.05,.04-.08v-.02h.01s.02-.1,.05-.14c0-.02,0-.04,.01-.05,.03-.03,.01-.08,.05-.11h0s.03-.09,.05-.13c0-.02,0-.04,.01-.05,.03-.03,.02-.08,.05-.11h0s.03-.09,.05-.13c0-.02,0-.03,.01-.05,.03-.03,.02-.08,.05-.11h0s.03-.09,.05-.13c0-.02,0-.03,.01-.04,.03-.03,.02-.08,.05-.12h0s.03-.09,.05-.13c0-.02,0-.03,.01-.04,.03-.03,.02-.08,.05-.12h0Z"/><path class="cls-18" d="M37.07,28.94s0,.03-.01,.04c-.03,.03-.02,.08-.05,.12h0s-.03,.09-.05,.12h0s-.04,.09-.06,.13v.02h-.01s-.02,.1-.05,.13h0s-.03,.08-.05,.12h0c-.07,.03-.02,.12-.07,.16h0s-.03,.09-.05,.12h0s-.04,.09-.06,.13c0,.02,0,.03-.01,.04-.03,.03-.02,.08-.05,.12h0s-.03,.08-.05,.12h0c-.05,.03-.04,.09-.06,.14v.02h-.01s-.02,.1-.05,.13c-.13,.42-.33,.82-.5,1.23-.35,.86-.72,1.71-1.08,2.57-.03,.08-.05,.17-.11,.23-.18-.05-.22-.21-.27-.35-.69-1.77-1.36-3.55-2.04-5.32-.63-1.63-1.24-3.26-1.88-4.89-.04-.11-.12-.22-.07-.36h0s.03-.09,.05-.13c0-.02,0-.03,.01-.04,.03-.03,.02-.08,.05-.12h0s.03-.09,.05-.13c0-.02,0-.03,.01-.04,.03-.03,.02-.08,.05-.12h0s.04-.09,.05-.14c0-.02,0-.03,.01-.04,.03-.03,.02-.08,.05-.12h0s.04-.09,.06-.14v-.02h.01s.02-.1,.05-.14h0s.04-.09,.06-.14v-.02h.01s.04-.05,.05-.08h0c.23-.05,.46-.02,.69-.02,1.08,0,2.17,0,3.25,0,.15,0,.15,.12,.19,.22,.69,1.86,1.4,3.7,2.13,5.55,.04,.11,.1,.21,.05,.33h0s-.03,.08-.05,.12h0c-.05,.03-.04,.09-.06,.14v.02h-.01s-.02,.1-.05,.13h0s-.03,.09-.06,.13Z"/><path class="cls-29" d="M63.28,55.41c-.38-.98-.75-1.97-1.13-2.95-.28-.74-.57-1.48-.85-2.22-.16-.42-.32-.83-.48-1.25-.02-.04-.05-.08-.02-.16,.15-.05,.31,0,.47-.02,.1,0,.22,.04,.3-.06,.42-.08,.85-.1,1.27-.19,.69-.15,1.34-.4,1.95-.74,.01-.02,.03-.03,.05-.04,.03-.04,.07-.07,.12-.08,.01-.02,.03-.03,.05-.04,.07-.08,.15-.15,.24-.19,.02-.02,.03-.03,.05-.05h0s.03-.04,.05-.06h.01s.03-.05,.05-.06h0s.03-.05,.05-.06h0s.03-.05,.05-.06h0s.04-.04,.05-.07c.01-.05,.05-.09,.08-.12,0-.02,.02-.04,.04-.05h0s.04-.05,.05-.08l.03-.05s.02-.04,.04-.05h0s.05-.05,.05-.09c0-.02,0-.03,.01-.03,.02-.02,.04-.05,.04-.08v-.02h.01s.02-.1,.05-.13v-.06s.03-.08,.06-.12v-.06c.05-.05,.01-.13,.06-.18-.01-.02,0-.04,0-.05,.11,0,.13,.1,.16,.18,.51,1.34,1.02,2.69,1.54,4.03,.41,1.07,.83,2.14,1.25,3.21,.04,.1,.11,.21,.03,.33h0s-.08,.02-.11,.06h0s-.08,.02-.11,.06h0s-.08,.02-.11,.06h0s-.08,.02-.11,.06v.02h-.03s-.06,.02-.09,.04l-.02,.02h-.02s-.1,0-.13,.06h0s-.09,.01-.12,.05h0s-.08,.02-.12,.05v.02h-.04s-.1,0-.14,.05h0s-.09,.02-.12,.05v.02h-.03s-.1,0-.14,.05h0s-.08,.02-.12,.05l-.02,.02h-.02s-.1,.01-.13,.05h-.03s-.1,.02-.14,.06h0c-.05,.05-.13,0-.17,.06h0s-.13,0-.17,.06c-.49,.2-1.01,.32-1.53,.43-.67,.15-1.34,.3-2.03,.33Z"/><path class="cls-11" d="M30.41,23.73c.56,1.35,1.06,2.72,1.59,4.08,.41,1.08,.84,2.15,1.25,3.22,.32,.84,.64,1.68,.96,2.53,.1,.26,.2,.52,.3,.79,.04,.11,.12,.2,.18,.3-.01,.05-.02,.09-.04,.14-.57,1.35-1.13,2.7-1.7,4.05-.02,.04-.05,.08-.07,.12-.2-.26-.28-.57-.4-.87-.53-1.42-1.09-2.83-1.63-4.25-.54-1.41-1.07-2.82-1.6-4.23-.14-.36-.28-.72-.42-1.08-.04-.1-.06-.24-.21-.26,.11-.34,.24-.67,.4-.99,.02,0,.02-.02,.02-.03,0-.01,0-.02,0-.02,.01-.09,.04-.17,.1-.24,.02,0,.03-.02,.03-.03,0-.02,0-.02,0-.02,0-.09,.04-.17,.1-.24,.02,0,.03-.02,.03-.03,0-.02,0-.02,0-.02,0-.09,.04-.17,.1-.24,.02,0,.03-.02,.03-.03,0-.02,0-.02,0-.02,.23-.68,.52-1.35,.78-2.02,.08-.21,.14-.42,.26-.61Z"/><path class="cls-17" d="M66.48,21.81c-.09,.11-.02,.21,.02,.3,.18,.49,.37,.98,.55,1.47,.29,.77,.59,1.54,.88,2.31,.25,.66,.51,1.32,.76,1.98,.06,.16,.12,.33,.19,.49,.05,.12,0,.16-.11,.16-.36,0-.72,0-1.08,0-.09,0-.2-.03-.28,.05-.65,.07-1.29,.14-1.92,.35-.3,.1-.59,.24-.89,.36-.23-.48-.39-.99-.58-1.48-.49-1.24-.96-2.49-1.44-3.73-.13-.35-.26-.71-.39-1.06-.03-.08-.03-.2-.16-.21,.52-.24,1.08-.37,1.63-.51,.53-.13,1.07-.27,1.62-.31,.06-.03,.13,0,.2-.04,.06-.02,.11-.03,.17-.02,.07-.05,.16,0,.24-.04,.08-.02,.15-.03,.23-.02,.07-.05,.16,0,.24-.04h.12Z"/><path class="cls-20" d="M38.59,45.37c.25,.36,.35,.8,.51,1.2,.35,.87,.68,1.75,1.01,2.63,.29,.75,.57,1.5,.86,2.25,.25,.66,.51,1.32,.77,1.98,.17,.44,.34,.88,.51,1.33,.1,.27,.09,.3-.2,.3-1.08,0-2.16,0-3.24,0-.76,0-1.52,0-2.27,0,0-.36,.12-.7,.2-1.05,.54-2.53,1.08-5.06,1.62-7.59,.02-.08,.04-.15,.06-.22,.04-.05,0-.13,.04-.18-.01-.02,0-.04,0-.05,.04-.06,.01-.13,.05-.2l.02-.1c.04-.06,0-.13,.05-.19l.02-.1Z"/><path class="cls-28" d="M50.44,29.53c-.21-.29-.3-.63-.42-.95-.27-.69-.54-1.39-.8-2.09-.29-.75-.58-1.5-.86-2.25-.22-.58-.44-1.16-.66-1.74-.05-.12-.12-.17-.24-.16-.09,0-.18,0-.26,0-1.22,0-2.43,0-3.65,0,.05-.07,.13-.04,.19-.04,2.68,0,5.36,0,8.04,0,.07,0,.14-.01,.22,.04-.08,.37-.15,.75-.23,1.12-.42,1.98-.85,3.96-1.27,5.94-.01,.05-.01,.1-.05,.13Z"/><path class="cls-13" d="M37.3,28.39c-.15-.39-.32-.77-.47-1.16-.32-.86-.66-1.72-.99-2.58-.22-.57-.44-1.14-.66-1.71-.07-.2-.17-.39-.17-.61,.05-.06,.13-.04,.19-.04,1.48,0,2.97,0,4.45,0,.06,0,.12,0,.17,.03,.03,.07-.02,.13-.05,.19-.8,1.91-1.6,3.82-2.4,5.73-.02,.05-.03,.11-.08,.15Z"/><path class="cls-21" d="M52.06,48.15c0,.12,.03,.22,.09,.33,.2,.33,.3,.71,.44,1.07,.48,1.23,.96,2.47,1.43,3.71,.19,.5,.38,.99,.57,1.49,.03,.09,.04,.17,.03,.26l-.11-.02c-.06-.04-.13,0-.19-.04l-.11-.02s-.1-.03-.14-.04h-.09c-.05-.06-.13-.02-.18-.06-.39-.05-.75-.17-1.13-.28-.57-.16-1.13-.35-1.67-.59-.2-.09-.2-.09-.15-.3,.33-1.54,.66-3.09,.99-4.63,.06-.29,.1-.59,.21-.87Z"/><path class="cls-26" d="M75.6,27.76c-.07-.03-.1-.08-.13-.15-.28-.74-.57-1.48-.86-2.22-.32-.82-.63-1.65-.95-2.47-.05-.13-.1-.25-.13-.38-.04-.14-.11-.24-.22-.33,.5,.06,.98,.22,1.47,.35,.55,.15,1.09,.33,1.64,.52,.14,.05,.18,.11,.15,.25-.32,1.47-.64,2.94-.95,4.4,0,0-.01,.02-.02,.02Z"/><path class="cls-8" d="M4.16,22.37c.02,.2,.09,.36,.16,.55,.18,.47,.36,.94,.53,1.41,.03,.08,.08,.16-.02,.23h-.05s-.09-.04-.13-.06c-.55-.16-1.09-.32-1.64-.48-.91-.27-1.83-.5-2.75-.7-.05-.01-.09-.03-.14-.04-.1,0-.14-.06-.11-.16,.07-.24,.08-.5,.17-.73,.07-.04,.14-.06,.22-.06,1.25,0,2.51,.04,3.76,.04Z"/><path class="cls-11" d="M39.83,22.33c-1.53,0-3.05,0-4.58,0-.08,0-.16,0-.23,.01-.6,0-1.2,0-1.8-.01-.74,0-1.49,0-2.23,0,.08-.07,.17-.03,.25-.03,2.78,0,5.57,0,8.35,0,.08,0,.17-.04,.24,.04Z"/><path class="cls-29" d="M61.52,55.57c.19-.11,.4-.03,.6-.04-.2,.07-.4,.05-.6,.04Z"/><path class="cls-29" d="M62.4,55.51c.13-.1,.28-.04,.42-.05-.13,.06-.28,.05-.42,.05Z"/><path class="cls-29" d="M62.98,55.45c.09-.09,.2-.04,.3-.04-.09,.07-.2,.05-.3,.04Z"/><path class="cls-10" d="M66.36,21.82c-.07,.07-.16,.04-.24,.04,.07-.04,.15-.05,.24-.04Z"/><path class="cls-10" d="M65.9,21.87c-.07,.07-.16,.04-.24,.04,.07-.05,.15-.05,.24-.04Z"/><path class="cls-2" d="M103.32,46.88c-.09-.07-.05-.17-.05-.25,.06,.08,.06,.16,.05,.25Z"/><path class="cls-2" d="M103.49,47.7c-.08-.07-.05-.16-.05-.24,.06,.07,.06,.16,.05,.24Z"/><path class="cls-2" d="M104.01,50.21c-.08-.07-.05-.16-.05-.24,.05,.07,.06,.16,.05,.24Z"/><path class="cls-2" d="M104.95,54.7c-.09-.07-.05-.16-.05-.25,.06,.08,.06,.16,.05,.25Z"/><path class="cls-2" d="M103.14,46.01c-.08-.07-.05-.16-.05-.24,.05,.07,.06,.15,.05,.24Z"/><path class="cls-2" d="M103.26,46.59c-.09-.07-.05-.16-.05-.25,.06,.07,.06,.16,.05,.25Z"/><path class="cls-2" d="M103.2,46.3c-.08-.07-.05-.16-.05-.24,.06,.07,.06,.16,.05,.24Z"/><path class="cls-2" d="M103.55,47.99c-.09-.07-.05-.16-.05-.25,.06,.07,.06,.16,.05,.25Z"/><path class="cls-2" d="M104.43,52.19c-.09-.07-.05-.17-.05-.25,.06,.08,.06,.16,.05,.25Z"/><path class="cls-2" d="M103.72,48.81c-.08-.07-.05-.16-.05-.24,.05,.07,.06,.16,.05,.24Z"/><path class="cls-29" d="M59.62,48.74c-.08,0-.17,.03-.24-.03,.08-.01,.17-.01,.24,.03Z"/><path class="cls-2" d="M103.78,49.1c-.08-.07-.05-.16-.05-.24,.06,.07,.06,.16,.05,.24Z"/><path class="cls-2" d="M103.84,49.39c-.09-.07-.05-.16-.05-.25,.06,.08,.06,.16,.05,.25Z"/><path class="cls-2" d="M104.07,50.5c-.09-.07-.05-.16-.05-.25,.06,.07,.06,.16,.05,.25Z"/><path class="cls-2" d="M104.13,50.79c-.09-.07-.05-.16-.05-.25,.06,.08,.06,.16,.05,.25Z"/><path class="cls-2" d="M104.25,51.32c-.08-.07-.05-.16-.05-.24,.05,.07,.06,.15,.05,.24Z"/><path class="cls-2" d="M104.31,51.61c-.08-.07-.05-.16-.05-.24,.06,.07,.06,.16,.05,.24Z"/><path class="cls-2" d="M104.37,51.9c-.09-.07-.05-.16-.05-.25,.06,.07,.06,.16,.05,.25Z"/><path class="cls-2" d="M104.54,52.72c-.08-.07-.05-.16-.05-.24,.05,.07,.06,.15,.05,.24Z"/><path class="cls-2" d="M104.6,53.01c-.08-.07-.05-.16-.05-.24,.06,.07,.06,.16,.05,.24Z"/><path class="cls-2" d="M104.66,53.3c-.09-.07-.05-.16-.05-.25,.06,.07,.06,.16,.05,.25Z"/><path class="cls-2" d="M103.43,47.41c-.08-.07-.05-.16-.05-.24,.05,.07,.06,.15,.05,.24Z"/><path class="cls-2" d="M104.83,54.12c-.08-.07-.05-.16-.05-.24,.05,.07,.06,.16,.05,.24Z"/><path class="cls-2" d="M104.89,54.41c-.08-.07-.05-.16-.05-.24,.06,.07,.06,.16,.05,.24Z"/><path class="cls-25" d="M23.35,41.57c0,.07,.01,.14-.07,.17,0-.07,.01-.13,.07-.17Z"/><path class="cls-10" d="M65.49,21.93c-.06,.06-.13,.04-.2,.04,.06-.05,.13-.05,.2-.04Z"/><path class="cls-19" d="M38.58,45.47c0,.07,.02,.14-.05,.19,0-.07,0-.13,.05-.19Z"/><path class="cls-13" d="M36.71,29.79c0-.06-.01-.14,.07-.17,0,.06-.02,.12-.07,.17Z"/><path class="cls-25" d="M23.23,41.87c0,.07,.01,.14-.07,.17,0-.07,.01-.13,.07-.17Z"/><path class="cls-2" d="M103.89,49.62c-.07-.05-.05-.13-.04-.2,.05,.06,.05,.13,.04,.2Z"/><path class="cls-2" d="M103.95,49.92c-.07-.06-.05-.13-.05-.2,.05,.06,.05,.13,.05,.2Z"/><path class="cls-2" d="M103.66,48.52c-.07-.05-.05-.13-.05-.2,.05,.06,.05,.13,.05,.2Z"/><path class="cls-19" d="M38.46,46c0,.06,.01,.13-.04,.18-.01-.07,0-.13,.04-.18Z"/><path class="cls-25" d="M23.46,41.28c0,.07,.02,.14-.07,.17,0-.07,.01-.13,.07-.17Z"/><path class="cls-2" d="M104.19,51.02c-.07-.05-.05-.13-.05-.2,.05,.06,.05,.13,.05,.2Z"/><path class="cls-23" d="M66.13,46c0,.06,.01,.13-.05,.18,0-.07,0-.13,.05-.18Z"/><path class="cls-2" d="M104.48,52.42c-.07-.05-.05-.13-.05-.2,.05,.06,.05,.13,.05,.2Z"/><path class="cls-19" d="M38.52,45.75c0,.07,.02,.14-.05,.2,0-.07,0-.14,.05-.2Z"/><path class="cls-2" d="M104.77,53.82c-.07-.05-.05-.13-.05-.2,.05,.06,.05,.13,.05,.2Z"/><path class="cls-2" d="M103.6,48.22c-.07-.05-.05-.13-.04-.2,.05,.06,.05,.12,.04,.2Z"/><path class="cls-2" d="M103.37,47.12c-.07-.05-.05-.13-.05-.2,.05,.06,.05,.13,.05,.2Z"/><path class="cls-23" d="M67.01,54.58c.04-.07,.11-.06,.17-.06-.05,.05-.11,.06-.17,.06Z"/><path class="cls-23" d="M66.84,54.64c.04-.07,.11-.06,.17-.06-.05,.05-.11,.06-.17,.06Z"/><path class="cls-2" d="M105,54.93c-.07-.05-.05-.13-.04-.2,.05,.06,.05,.13,.04,.2Z"/><path class="cls-32" d="M53.81,54.82c.07,0,.13-.02,.18,.05-.07,0-.13,0-.18-.05Z"/><path class="cls-32" d="M54.33,54.94c.07,0,.14-.02,.19,.04-.07,0-.13,0-.19-.04Z"/><path class="cls-2" d="M104.71,53.53c-.07-.05-.05-.13-.04-.19,.05,.06,.05,.12,.04,.19Z"/><path class="cls-13" d="M36.78,29.63c0-.05,0-.1,.05-.13,0,.05,0,.1-.05,.13Z"/><path class="cls-13" d="M36.66,29.92s0-.09,.05-.12c0,.05,0,.09-.05,.12Z"/><path class="cls-13" d="M36.61,30.05c0-.06,0-.11,.06-.14,0,.05,0,.1-.06,.14Z"/><path class="cls-13" d="M36.54,30.2s0-.09,.05-.12c0,.05,0,.09-.05,.12Z"/><path class="cls-13" d="M36.49,30.33c0-.05,0-.1,.05-.12,0,.05,0,.1-.05,.12Z"/><path class="cls-13" d="M36.43,30.46c0-.06,0-.11,.06-.14,0,.06-.01,.11-.06,.14Z"/><path class="cls-13" d="M36.37,30.62s0-.09,.05-.12c0,.05,0,.09-.05,.12Z"/><path class="cls-7" d="M25.45,36.27s0,.09-.05,.12c0-.05,0-.09,.05-.12Z"/><path class="cls-7" d="M25.38,36.43c0,.05,0,.1-.05,.13,0-.05,0-.1,.05-.13Z"/><path class="cls-7" d="M25.33,36.56s0,.09-.05,.12c0-.05,0-.09,.05-.12Z"/><path class="cls-7" d="M25.27,36.72c0,.05,0,.1-.05,.13,0-.05,0-.1,.05-.13Z"/><path class="cls-27" d="M40.44,36.76c0,.05,0,.11-.04,.14,0-.05,0-.1,.04-.14Z"/><path class="cls-7" d="M25.22,36.85s0,.09-.05,.11c0-.05,.01-.09,.05-.11Z"/><path class="cls-7" d="M25.15,37.01c0,.05,0,.1-.05,.13,0-.05,0-.1,.05-.13Z"/><path class="cls-27" d="M40.39,37.02s0,.09-.04,.12c-.01-.05,0-.09,.04-.12Z"/><path class="cls-7" d="M25.1,37.14s0,.09-.05,.11c0-.05,.01-.08,.05-.11Z"/><path class="cls-7" d="M25.04,37.31c0,.05,0,.1-.05,.13,0-.05,0-.1,.05-.13Z"/><path class="cls-27" d="M40.33,37.3s0,.1-.04,.13c0-.05,0-.1,.04-.13Z"/><path class="cls-7" d="M24.98,37.44s0,.09-.05,.11c0-.05,.01-.08,.05-.11Z"/><path class="cls-7" d="M24.92,37.6c0,.05,0,.1-.05,.13,0-.05,0-.1,.05-.13Z"/><path class="cls-5" d="M86.62,26.46s0,.09-.05,.12c0-.05,0-.09,.05-.12Z"/><path class="cls-7" d="M24.69,38.19s0,.09-.05,.12c0-.05,0-.09,.05-.12Z"/><path class="cls-25" d="M23.81,40.4s0,.1-.05,.13c0-.05,0-.09,.05-.13Z"/><path class="cls-25" d="M23.75,40.56c0,.06,0,.11-.06,.14,0-.05,0-.11,.06-.14Z"/><path class="cls-25" d="M23.69,40.7s0,.09-.05,.12c0-.05,0-.09,.05-.12Z"/><path class="cls-25" d="M23.63,40.85c0,.06,0,.11-.05,.14,0-.05,0-.1,.05-.14Z"/><path class="cls-25" d="M23.58,40.99s0,.09-.05,.12c0-.05,0-.09,.05-.12Z"/><path class="cls-25" d="M23.52,41.15c0,.05,0,.11-.05,.14,0-.05,0-.1,.05-.14Z"/><path class="cls-25" d="M23.4,41.45c0,.05,0,.1-.05,.13,0-.05,0-.1,.05-.13Z"/><path class="cls-25" d="M23.28,41.74c0,.05,0,.1-.05,.13,0-.05,0-.1,.05-.13Z"/><path class="cls-23" d="M62.81,41.98s.09,.01,.11,.06c-.05,0-.08-.02-.11-.06Z"/><path class="cls-25" d="M23.17,42.03c0,.05,0,.1-.05,.13,0-.05,0-.1,.05-.13Z"/><path class="cls-23" d="M62.93,42.04s.09,.01,.11,.06c-.05,0-.09-.02-.11-.06Z"/><path class="cls-23" d="M63.04,42.1s.09,0,.11,.06c-.05,0-.09-.01-.11-.06Z"/><path class="cls-23" d="M63.15,42.16c.05,0,.1,0,.12,.06-.05,0-.09-.02-.12-.06Z"/><path class="cls-23" d="M66.07,46.24s0,.09-.04,.12c0-.05,0-.09,.04-.12Z"/><path class="cls-23" d="M66.02,46.41s0,.09-.05,.12c0-.05,.01-.09,.05-.12Z"/><path class="cls-11" d="M30.93,22.42c0,.06,0,.11-.06,.14,0-.06,0-.11,.06-.14Z"/><path class="cls-7" d="M29.54,46.89c0-.05,0-.1,.05-.12,0,.05,0,.1-.05,.12Z"/><path class="cls-7" d="M29.49,47.03c0-.06,0-.11,.06-.14,0,.06-.01,.11-.06,.14Z"/><path class="cls-11" d="M30.87,22.56s0,.09-.05,.12c0-.05,0-.09,.05-.12Z"/><path class="cls-7" d="M29.42,47.18s0-.09,.05-.12c0,.05,0,.09-.05,.12Z"/><path class="cls-7" d="M29.37,47.31c0-.05,0-.11,.06-.13,0,.05,0,.1-.06,.13Z"/><path class="cls-11" d="M30.81,22.71c0,.06,0,.11-.06,.14,0-.05,0-.11,.06-.14Z"/><path class="cls-11" d="M30.76,22.85s0,.09-.05,.12c0-.05,0-.09,.05-.12Z"/><path class="cls-7" d="M29.25,47.59c0-.05,0-.1,.05-.12,0,.05,0,.09-.05,.12Z"/><path class="cls-11" d="M30.7,23c0,.06,0,.11-.05,.14,0-.05,0-.1,.05-.14Z"/><path class="cls-7" d="M29.19,47.73c0-.06,0-.11,.06-.14,0,.05,0,.11-.06,.14Z"/><path class="cls-7" d="M29.13,47.88s0-.09,.05-.12c0,.05,0,.09-.05,.12Z"/><path class="cls-11" d="M30.64,23.14s0,.09-.05,.12c0-.05,0-.09,.05-.12Z"/><path class="cls-7" d="M29.07,48.01c0-.05,0-.1,.06-.13,0,.05,0,.1-.06,.13Z"/><path class="cls-7" d="M29.01,48.17s0-.09,.05-.11c0,.05-.01,.09-.05,.11Z"/><path class="cls-11" d="M30.58,23.3c0,.05,0,.11-.05,.14,0-.05,0-.1,.05-.14Z"/><path class="cls-7" d="M28.96,48.29c0-.05,0-.1,.05-.12,0,.05,0,.09-.05,.12Z"/><path class="cls-11" d="M30.53,23.43s0,.09-.05,.12c0-.05,0-.09,.05-.12Z"/><path class="cls-7" d="M28.9,48.42c0-.06,0-.11,.06-.14,0,.05,0,.1-.06,.14Z"/><path class="cls-11" d="M30.46,23.59c0,.05,0,.1-.05,.13,0-.05,0-.1,.05-.13Z"/><path class="cls-7" d="M28.84,48.58s0-.09,.05-.12c0,.05-.01,.09-.05,.12Z"/><path class="cls-5" d="M87.79,23.91s-.02,.09-.07,.1c0-.05,.03-.08,.07-.1Z"/><path class="cls-5" d="M87.68,24.09s-.02,.09-.06,.11c0-.05,.02-.08,.06-.11Z"/><path class="cls-5" d="M87.61,24.19c0,.05-.01,.09-.06,.11,0-.05,.02-.09,.06-.11Z"/><path class="cls-5" d="M87.55,24.3c0,.05,0,.1-.06,.12,0-.05,.02-.09,.06-.12Z"/><path class="cls-5" d="M87.49,24.42c0,.05,0,.1-.06,.12,0-.05,.01-.1,.06-.12Z"/><path class="cls-16" d="M4.65,24.49c.05,0,.1,0,.13,.05-.05,0-.1,0-.13-.05Z"/><path class="cls-5" d="M87.43,24.54c0,.05,0,.1-.06,.12,0-.05,0-.1,.06-.12Z"/><path class="cls-5" d="M87.38,24.66s0,.09-.05,.12c0-.05,0-.09,.05-.12Z"/><path class="cls-5" d="M87.32,24.78s0,.09-.05,.11c0-.05,.01-.08,.05-.11Z"/><path class="cls-5" d="M87.26,24.94c0,.05,0,.1-.05,.13,0-.05,0-.1,.05-.13Z"/><path class="cls-5" d="M87.2,25.07s0,.09-.05,.12c0-.05,0-.09,.05-.12Z"/><path class="cls-5" d="M87.14,25.22c0,.06,0,.11-.06,.14,0-.05,.01-.1,.06-.14Z"/><path class="cls-5" d="M87.08,25.35c0,.05,0,.1-.05,.12,0-.05,0-.09,.05-.12Z"/><path class="cls-5" d="M87.03,25.48s0,.09-.05,.11c0-.05,.01-.09,.05-.11Z"/><path class="cls-7" d="M24.8,37.89s0,.1-.05,.12c0-.05,0-.09,.05-.12Z"/><path class="cls-5" d="M86.97,25.63c0,.05,0,.1-.06,.13,0-.05,0-.1,.06-.13Z"/><path class="cls-5" d="M86.91,25.76s0,.09-.05,.12c0-.05,0-.09,.05-.12Z"/><path class="cls-5" d="M86.79,26.05c0,.05,0,.1-.05,.13,0-.05,0-.1,.05-.13Z"/><path class="cls-5" d="M86.74,26.18s0,.09-.05,.12c0-.05,.01-.09,.05-.12Z"/><path class="cls-5" d="M86.67,26.33c0,.05,0,.11-.06,.13,0-.05,0-.1,.06-.13Z"/><path class="cls-5" d="M86.56,26.59s0,.09-.05,.11c0-.05,.01-.08,.05-.11Z"/><path class="cls-23" d="M69,53.77s.07-.06,.11-.06c-.03,.04-.06,.06-.11,.06Z"/><path class="cls-23" d="M68.88,53.82s.07-.06,.11-.06c-.03,.04-.06,.06-.11,.06Z"/><path class="cls-23" d="M68.76,53.88s.07-.06,.11-.05c-.03,.04-.06,.06-.11,.05Z"/><path class="cls-23" d="M68.64,53.94s.07-.05,.11-.05c-.03,.04-.06,.06-.11,.05Z"/><path class="cls-5" d="M86.5,26.75c0,.05,0,.1-.05,.13,0-.05,0-.1,.05-.13Z"/><path class="cls-23" d="M68.36,54.06c.03-.06,.08-.06,.13-.06-.03,.05-.08,.06-.13,.06Z"/><path class="cls-23" d="M68.24,54.12c.02-.05,.07-.06,.12-.05-.03,.05-.07,.06-.12,.05Z"/><path class="cls-23" d="M68.12,54.17s.07-.05,.12-.05c-.03,.04-.07,.06-.12,.05Z"/><path class="cls-23" d="M67.95,54.24c.03-.06,.08-.06,.14-.06-.03,.05-.08,.06-.14,.06Z"/><path class="cls-5" d="M86.45,26.88s0,.09-.05,.12c0-.05,0-.09,.05-.12Z"/><path class="cls-23" d="M67.83,54.29s.07-.05,.12-.05c-.03,.05-.07,.06-.12,.05Z"/><path class="cls-23" d="M67.65,54.35c.03-.06,.08-.06,.14-.05-.03,.05-.09,.06-.14,.05Z"/><path class="cls-23" d="M67.54,54.4s.07-.05,.12-.05c-.03,.04-.07,.05-.12,.05Z"/><path class="cls-23" d="M67.36,54.47c.03-.05,.08-.06,.13-.05-.03,.05-.08,.05-.13,.05Z"/><path class="cls-23" d="M67.19,54.53c.03-.06,.09-.06,.14-.05-.04,.05-.09,.05-.14,.05Z"/><path class="cls-13" d="M37.25,28.52c0-.05,0-.1,.05-.12,0,.05,0,.1-.05,.12Z"/><path class="cls-13" d="M37.19,28.66c0-.06,0-.11,.06-.14,0,.06-.01,.11-.06,.14Z"/><path class="cls-13" d="M37.13,28.81s0-.09,.05-.12c0,.05,0,.09-.05,.12Z"/><path class="cls-13" d="M37.07,28.94c0-.05,0-.11,.06-.13,0,.05,0,.1-.06,.13Z"/><path class="cls-13" d="M37.01,29.09s0-.09,.05-.12c0,.05-.01,.09-.05,.12Z"/><path class="cls-32" d="M54.08,54.88c.05,0,.11,0,.14,.04-.05,0-.1,0-.14-.04Z"/><path class="cls-13" d="M36.95,29.22c0-.05,0-.1,.05-.12,0,.05,0,.09-.05,.12Z"/><path class="cls-13" d="M36.9,29.35c0-.06,0-.11,.06-.14,0,.05-.01,.1-.06,.14Z"/><path class="cls-13" d="M36.83,29.51s0-.09,.05-.12c0,.05,0,.09-.05,.12Z"/><path class="cls-7" d="M29.3,47.47s0-.09,.05-.12c0,.05-.01,.09-.05,.12Z"/><path class="cls-23" d="M56.91,26.06l-.06,.06s.02-.05,.06-.06Z"/><path class="cls-5" d="M86.85,25.92s-.01,.06-.04,.08c0-.04,0-.07,.04-.08Z"/><path class="cls-5" d="M87.73,24.01l-.05,.07s.01-.06,.05-.07Z"/><path class="cls-5" d="M87.85,23.84l-.05,.06s.01-.05,.05-.06Z"/><path class="cls-5" d="M87.96,23.7s-.02,.07-.06,.08c0-.04,.02-.06,.06-.08Z"/><path class="cls-5" d="M88.02,23.62l-.04,.05s.01-.04,.04-.05Z"/><path class="cls-23" d="M56.56,26.46l-.06,.07s.02-.06,.06-.07Z"/><path class="cls-5" d="M88.08,23.56l-.05,.05s.02-.05,.05-.05Z"/><path class="cls-23" d="M61.56,41.35l.08,.04s-.06,0-.08-.04Z"/><path class="cls-23" d="M65.95,46.57s-.01,.06-.04,.08c0-.04,.01-.07,.04-.08Z"/><path class="cls-11" d="M30.99,22.32s-.02,.05-.05,.07c0-.04,0-.07,.05-.07Z"/><path class="cls-23" d="M61.68,41.41l.08,.04s-.06,0-.08-.04Z"/><path class="cls-23" d="M65.89,46.68s-.02,.06-.05,.08c0-.04,.01-.07,.05-.08Z"/><path class="cls-7" d="M24.74,38.05l-.04,.08s0-.06,.04-.08Z"/><path class="cls-23" d="M65.84,46.77l-.04,.05s.01-.04,.04-.05Z"/><path class="cls-23" d="M61.79,41.47l.08,.04s-.06,0-.08-.04Z"/><path class="cls-23" d="M65.78,46.88l-.05,.07s.02-.06,.05-.07Z"/><path class="cls-23" d="M65.73,46.95l-.04,.05s.01-.04,.04-.05Z"/><path class="cls-23" d="M61.91,41.53l.08,.04s-.06,0-.08-.04Z"/><path class="cls-7" d="M29.37,26.35s.02,.05-.02,.05l.02-.05Z"/><path class="cls-23" d="M65.61,47.11l-.05,.06s.02-.05,.05-.06Z"/><path class="cls-23" d="M62.03,41.58l.07,.04s-.06,0-.07-.04Z"/><path class="cls-23" d="M65.55,47.18l-.05,.06s.02-.05,.05-.06Z"/><path class="cls-23" d="M62.15,41.64l.07,.04s-.06-.01-.07-.04Z"/><path class="cls-23" d="M65.49,47.24l-.05,.05s.02-.05,.05-.05Z"/><path class="cls-23" d="M68.53,53.99s.05-.04,.09-.04c-.02,.03-.05,.05-.09,.04Z"/><path class="cls-23" d="M65.43,47.3l-.05,.05s.02-.05,.05-.05Z"/><path class="cls-23" d="M62.27,41.7l.07,.04s-.06-.01-.07-.04Z"/><path class="cls-23" d="M65.38,47.36l-.05,.05s.02-.05,.05-.05Z"/><path class="cls-23" d="M65.32,47.42l-.05,.05s.02-.05,.05-.05Z"/><path class="cls-7" d="M24.86,37.76l-.04,.08s0-.06,.04-.08Z"/><path class="cls-23" d="M62.38,41.76l.07,.04s-.06-.01-.07-.04Z"/><path class="cls-23" d="M62.5,41.82l.08,.04s-.06-.01-.08-.04Z"/><path class="cls-23" d="M65.02,47.66l-.05,.04s.02-.04,.05-.04Z"/><path class="cls-23" d="M56.68,26.31s-.02,.03-.04,.04c0-.03,.01-.04,.04-.04Z"/><path class="cls-23" d="M64.85,47.78l-.05,.04s.02-.04,.05-.04Z"/><path class="cls-23" d="M62.61,41.88s.06,.02,.08,.04c-.04,0-.06-.01-.08-.04Z"/><path class="cls-23" d="M62.72,41.93s.06,.02,.08,.05c-.04,0-.07-.01-.08-.05Z"/><path class="cls-7" d="M29.02,27.23s.02,.03,0,.04c0,0-.02,0-.03,.01l.02-.05Z"/><path class="cls-7" d="M29.14,26.94s.02,.03,0,.04c0,0-.02,0-.03,0l.02-.05Z"/><path class="cls-7" d="M29.25,26.64s.02,.05-.02,.05l.02-.05Z"/><path class="cls-23" d="M56.5,26.53l-.05,.06s.02-.05,.05-.06Z"/><path class="cls-23" d="M56.74,26.25l-.05,.05s.02-.05,.05-.05Z"/><path class="cls-5" d="M87.9,23.78s-.02,.05-.05,.07c0-.03,.02-.06,.05-.07Z"/><path class="cls-23" d="M56.79,26.18l-.05,.05s.02-.05,.05-.05Z"/><path class="cls-23" d="M56.85,26.12l-.05,.06s.02-.05,.05-.06Z"/><path class="cls-1" d="M93.92,39.31s0,.04,0,.05c.04,.06,.01,.14,.05,.2,.05,.46,.17,.91,.27,1.37,.16,.78,.33,1.55,.49,2.33,.01,.06,.02,.11,.02,.18-.11,.05-.22,.03-.32,.03-1.64,0-3.28,0-4.92,0-.11,0-.21-.02-.32,.02-.47-.05-.94,0-1.41-.03-.04-.09,.01-.16,.04-.23,.19-.54,.39-1.07,.58-1.6,.02-.05,.03-.11,.04-.17,.23-.52,.4-1.07,.6-1.6,.45-1.23,.89-2.45,1.34-3.68,.02-.06,.06-.12,.05-.19,.02-.04,.02-.1,.05-.13h.02v-.03s.01-.1,.05-.14h0c.05-.05,0-.13,.06-.17h0s.02-.08,.05-.12c.02-.01,.02-.02,.01-.04,.02-.04,.02-.09,.05-.13h.02v-.03s.01-.1,.05-.14h0c.05-.05,0-.13,.06-.17h0s.02-.08,.05-.12c.02-.01,.02-.03,.01-.04,.02-.04,.02-.09,.05-.13,.02,0,.02-.02,.01-.04,.02-.05,.02-.1,.05-.14h0c.05-.05,0-.13,.06-.17h0s.02-.08,.05-.12c.02-.01,.02-.03,.01-.04,.02-.04,.02-.09,.05-.13,.02,0,.02-.02,.01-.04,.02-.05,.02-.1,.05-.14h0c.05-.05,0-.13,.06-.17h0c.05-.05,0-.13,.06-.17h0s.02-.08,.05-.12c.02,0,.02-.02,.01-.04,.02-.05,.02-.1,.05-.14h0c.06-.05,0-.13,.06-.17h0c.05-.05,0-.13,.06-.17h0s.02-.08,.05-.12c.02-.01,.02-.02,.01-.04,.17-.35,.27-.72,.41-1.08,.04-.1,.04-.21,.15-.28,.26,1.24,.52,2.47,.77,3.71,.24,1.14,.47,2.28,.71,3.42,0,.03,.02,.05,.04,.08-.01,.02,0,.03,0,.04,.06,.07,0,.17,.05,.25-.01,.02,0,.03,0,.04,.06,.07,0,.17,.05,.24-.01,.02,0,.03,0,.05,.05,.07,0,.17,.05,.24Z"/><path class="cls-5" d="M91.36,33.41c0,.07,0,.13-.06,.18,0-.07-.02-.14,.06-.18Z"/><path class="cls-5" d="M91.06,34.23c0,.07,0,.13-.06,.17,0-.07-.01-.14,.06-.17Z"/><path class="cls-5" d="M91.59,32.77c0,.07,0,.13-.06,.18,0-.07-.02-.14,.06-.18Z"/><path class="cls-5" d="M91.53,32.95c0,.07-.01,.13-.06,.17,0-.06-.01-.13,.06-.17Z"/><path class="cls-5" d="M90.6,35.51c0,.07,0,.13-.06,.17,0-.07-.01-.14,.06-.17Z"/><path class="cls-5" d="M90.83,34.87c0,.07-.01,.13-.06,.17,0-.07-.01-.14,.06-.17Z"/><path class="cls-5" d="M91.3,33.59c0,.07-.01,.13-.06,.17,0-.06-.01-.13,.06-.17Z"/><path class="cls-5" d="M91.64,32.65s0,.09-.05,.12c0-.05,0-.09,.05-.12Z"/><path class="cls-5" d="M91.47,33.12c0,.05,0,.1-.05,.14,0-.05,0-.11,.05-.14Z"/><path class="cls-5" d="M91.4,33.29s0,.09-.05,.12c0-.05,0-.09,.05-.12Z"/><path class="cls-5" d="M91.23,33.76c0,.05,0,.1-.05,.14,0-.05,0-.11,.05-.14Z"/><path class="cls-5" d="M91.17,33.94c0,.05,0,.1-.05,.13,0-.05,0-.1,.05-.13Z"/><path class="cls-5" d="M91.11,34.11s0,.09-.05,.12c0-.05,0-.09,.05-.12Z"/><path class="cls-5" d="M91,34.4c0,.05,0,.1-.05,.14,0-.05,0-.11,.05-.14Z"/><path class="cls-5" d="M90.94,34.58c0,.05,0,.1-.05,.13,0-.05,0-.1,.05-.13Z"/><path class="cls-5" d="M90.88,34.75s0,.09-.05,.12c0-.05,0-.09,.05-.12Z"/><path class="cls-5" d="M90.77,35.04c0,.05,0,.11-.05,.14,0-.06,0-.11,.05-.14Z"/><path class="cls-5" d="M90.71,35.22c0,.05,0,.1-.05,.13,0-.05,0-.1,.05-.13Z"/><path class="cls-5" d="M90.64,35.39s0,.09-.05,.12c0-.05,0-.09,.05-.12Z"/><path class="cls-5" d="M90.54,35.69c0,.05,0,.11-.05,.14,0-.06,0-.11,.05-.14Z"/><path class="cls-5" d="M90.47,35.86c0,.05,0,.1-.05,.13,0-.05,0-.1,.05-.13Z"/><path class="cls-5" d="M93.92,39.31c-.05-.07-.06-.15-.05-.24,.08,.07,.05,.16,.05,.24Z"/><path class="cls-5" d="M93.8,38.73c-.06-.07-.06-.16-.05-.25,.09,.07,.05,.16,.05,.25Z"/><path class="cls-5" d="M93.86,39.02c-.05-.07-.06-.16-.05-.24,.08,.07,.05,.16,.05,.24Z"/><path class="cls-5" d="M93.97,39.56c-.05-.06-.05-.13-.05-.2,.07,.05,.05,.13,.05,.2Z"/></g></svg>